<?xml version="1.0" encoding="UTF-8"?>
<svg xmlns="http://www.w3.org/2000/svg" xmlns:xlink="http://www.w3.org/1999/xlink" version="1.2" >
<font id="HUGE Avant Garde Bold">
<font-face  font-family="HUGE Avant Garde" units-per-em="1000" ascent="740" descent="-185" font-style="normal" font-weight="700" font-stretch="normal" cap-height="700" x-height="500" underline-position="-75" underline-thickness="50" />
<missing-glyph  horiz-adv-x="309" d="" />
<glyph glyph-name="&amp;#x20;" unicode="&#x20;" horiz-adv-x="309" d="" />
<glyph glyph-name="&amp;#xa0;" unicode="&#xa0;" horiz-adv-x="309" d="" />
<glyph glyph-name="dollar" unicode="&#x24;" horiz-adv-x="618" d="M381 710 Q411 703 436.5 687 Q462 671 481 647 Q500 623 510.5 591 Q521 559 520 520 L365 520 Q365 526 363 536.5 Q361 547 355.5 557.5 Q350 568 339.5 575.5 Q329 583 310 583 Q284 583 270 566 Q256 549 256 527 Q256 508 264.5 494 Q273 480 290.5 469 Q308 458 333 447.5 Q358 437 391 424 Q437 406 466 381.5 Q495 357 511 330 Q527 303 532.5 277 Q538 251 538 232 Q538 226 535.5 200.5 Q533 175 518 143.5 Q503 112 471 80 Q439 48 381 29 L381 -76 L246 -76 L246 25 Q234 28 219.5 31.5 Q205 35 188.5 42.5 Q172 50 155.5 62 Q139 74 124 93 Q105 117 92.5 149.5 Q80 182 80 213 L80 224 L251 224 Q251 219 253 207.5 Q255 196 261 184 Q267 172 278.5 162.5 Q290 153 310 153 Q329 153 348 168 Q367 183 367 212 Q367 237 348.5 258.5 Q330 280 275 301 Q244 312 210.5 326.5 Q177 341 149.5 364 Q122 387 104 421.5 Q86 456 86 508 Q86 554 100.5 588.5 Q115 623 137.5 647.5 Q160 672 188.5 687 Q217 702 246 710 L246 811 L381 811 L381 710 Z " />
<glyph glyph-name="percent" unicode="&#x25;" horiz-adv-x="858" d="M36 574 Q36 611 50 644 Q64 677 88.5 702 Q113 727 146 741 Q179 755 216 755 Q253 755 286 741 Q319 727 343.5 702 Q368 677 382 644 Q396 611 396 574 Q396 536 382 503.5 Q368 471 343.5 446.5 Q319 422 286 408 Q253 394 216 394 Q179 394 146.5 408 Q114 422 89.5 446.5 Q65 471 50.5 503.5 Q36 536 36 574 Z M147 574 Q147 546 167 525.5 Q187 505 216 505 Q243 505 264 525 Q285 545 285 575 Q285 604 265 624 Q245 644 216 644 Q187 644 167 624 Q147 604 147 574 Z M461 166 Q461 203 475 236 Q489 269 514 294 Q539 319 571.5 333 Q604 347 642 347 Q679 347 712 333 Q745 319 769.5 294 Q794 269 808 236 Q822 203 822 166 Q822 128 807.5 95 Q793 62 768.5 37.5 Q744 13 711 -1 Q678 -15 642 -15 Q605 -15 572 -1 Q539 13 514.5 37.5 Q490 62 475.5 95 Q461 128 461 166 Z M572 166 Q572 137 592.5 116.5 Q613 96 642 96 Q670 96 690.5 116.5 Q711 137 711 166 Q711 196 690.5 216 Q670 236 642 236 Q612 236 592 215.5 Q572 195 572 166 Z M522 740 L638 740 L331 0 L216 0 L522 740 Z " />
<glyph glyph-name="ampersand" unicode="&#x26;" horiz-adv-x="758" d="M729 435 L672 298 Q661 272 647.5 247.5 Q634 223 616 200 L717 96 L604 -15 L517 75 Q506 66 487 51 Q468 36 440.5 21 Q413 6 377 -4.5 Q341 -15 296 -15 Q244 -15 199 1.5 Q154 18 120.5 47.5 Q87 77 68 116 Q49 155 49 200 Q49 241 63 273 Q77 305 97.5 329.5 Q118 354 142 371.5 Q166 389 186 403 Q147 443 131.5 483 Q116 523 116 563 Q116 603 132 638 Q148 673 175.5 699 Q203 725 240.5 739.5 Q278 754 321 754 Q364 754 399.5 739.5 Q435 725 460.5 700.5 Q486 676 500.5 642.5 Q515 609 515 572 Q515 536 503.5 508 Q492 480 476 459.5 Q460 439 442.5 425 Q425 411 413 402 L500 314 L554 435 L729 435 Z M288 303 Q270 289 250.5 268.5 Q231 248 231 217 Q231 182 256.5 163 Q282 144 316 144 Q355 144 375 157.5 Q395 171 406 184 L288 303 Z M319 491 Q336 508 350.5 527 Q365 546 365 573 Q365 593 354 606.5 Q343 620 322 620 Q305 620 291 608 Q277 596 277 571 Q277 545 291.5 525 Q306 505 319 491 Z " />
<glyph glyph-name="quoteright" unicode="&#x2019;" horiz-adv-x="314" d="M124 521 Q92 532 73 558 Q54 584 54 617 Q54 659 84 691 Q114 721 157 721 Q201 721 231 691 Q260 659 260 617 Q260 531 149 374 L48 374 Q98 450 124 521 Z " />
<glyph glyph-name="parenleft" unicode="&#x28;" horiz-adv-x="473" d="M430 -264 Q330 -227 260.5 -169 Q191 -111 147.5 -42.5 Q104 26 84.5 100.5 Q65 175 65 245 Q65 315 84.5 389 Q104 463 147.5 531.5 Q191 600 260.5 658 Q330 716 430 754 L430 580 Q399 563 367 532 Q335 501 309 458 Q283 415 266.5 360.5 Q250 306 250 243 Q250 184 265.5 131 Q281 78 306.5 35 Q332 -8 364 -40.5 Q396 -73 430 -91 L430 -264 Z " />
<glyph glyph-name="parenright" unicode="&#x29;" horiz-adv-x="473" d="M43 754 Q143 716 212.5 658 Q282 600 325.5 531.5 Q369 463 388.5 388.5 Q408 314 408 244 Q408 174 388.5 100 Q369 26 325.5 -42.5 Q282 -111 212.5 -169 Q143 -227 43 -264 L43 -91 Q74 -74 106 -43 Q138 -12 164 31 Q190 74 206.5 128.5 Q223 183 223 246 Q223 305 207.5 358 Q192 411 166.5 454 Q141 497 109 529.5 Q77 562 43 580 L43 754 Z " />
<glyph glyph-name="asterisk" unicode="&#x2a;" horiz-adv-x="670" d="M424 498 L507 388 L414 318 L332 433 L253 318 L160 388 L246 498 L115 539 L151 648 L279 600 L276 740 L395 740 L388 600 L517 648 L555 539 L424 498 Z " />
<glyph glyph-name="plus" unicode="&#x2b;" horiz-adv-x="600" d="M220 506 L380 506 L380 333 L552 333 L552 173 L380 173 L380 0 L220 0 L220 173 L48 173 L48 333 L220 333 L220 506 Z " />
<glyph glyph-name="comma" unicode="&#x2c;" horiz-adv-x="314" d="M126 -8 Q99 1 81 25 Q64 50 64 78 Q64 116 92 143 Q119 171 157 171 Q195 171 222 143 Q249 116 249 78 Q249 4 149 -140 L59 -140 Q104 -71 126 -8 Z " />
<glyph glyph-name="hyphen" unicode="&#x2d;" horiz-adv-x="281" d="M281 207 L0 207 L0 370 L281 370 L281 207 Z " />
<glyph glyph-name="period" unicode="&#x2e;" horiz-adv-x="314" d="M158 171 Q196 171 223 144 Q251 117 251 79 Q251 41 224 13 Q197 -14 159 -14 Q121 -14 94 13 Q66 40 66 78 Q66 116 93 143 Q120 171 158 171 Z " />
<glyph glyph-name="slash" unicode="&#x2f;" horiz-adv-x="593" d="M337 740 L521 740 L257 -100 L72 -100 L337 740 Z " />
<glyph glyph-name="zero" unicode="0" horiz-adv-x="618" d="M33 473 Q33 553 61.5 607 Q90 661 132.5 693.5 Q175 726 223.5 740 Q272 754 312 754 Q336 754 365.5 748.5 Q395 743 425 730 Q455 717 484 695.5 Q513 674 535.5 643 Q558 612 571.5 570 Q585 528 585 473 L585 267 Q585 190 558.5 136.5 Q532 83 492 49.5 Q452 16 403.5 1 Q355 -14 312 -14 Q271 -14 222.5 0.5 Q174 15 132 48 Q90 81 61.5 135 Q33 189 33 267 L33 473 Z M222 262 Q222 245 225.5 226 Q229 207 238.5 190.5 Q248 174 265 163 Q282 152 309 152 Q342 152 359.5 166 Q377 180 385 198.5 Q393 217 394.5 235.5 Q396 254 396 262 L396 478 Q396 487 394.5 505 Q393 523 385 541.5 Q377 560 359.5 574 Q342 588 309 588 Q281 588 264 576.5 Q247 565 237.5 548 Q228 531 225 512 Q222 493 222 478 L222 262 Z " />
<glyph glyph-name="one" unicode="1" horiz-adv-x="494" d="M383 0 L194 0 L194 581 L73 581 L73 740 L383 740 L383 0 Z " />
<glyph glyph-name="two" unicode="2" horiz-adv-x="618" d="M573 159 L573 0 L51 0 L51 147 Q86 170 116 190 Q146 210 173 230.5 Q200 251 225.5 274.5 Q251 298 277 327 Q286 337 303 357 Q320 377 337 403 Q354 429 366.5 458.5 Q379 488 379 516 Q379 527 375.5 540 Q372 553 364 563.5 Q356 574 342.5 581 Q329 588 309 588 Q281 588 265 576 Q249 564 240 546 Q231 528 228 507.5 Q225 487 224 471 L44 471 Q45 507 51.5 551 Q58 595 88 641 Q112 678 143 700 Q174 722 205.5 734 Q237 746 266.5 750 Q296 754 316 754 Q378 754 425 735 Q472 716 504 685.5 Q536 655 552 616.5 Q568 578 568 539 Q568 480 546 428 Q524 376 489 329 Q454 282 410 240 Q366 198 322 159 L573 159 Z " />
<glyph glyph-name="three" unicode="3" horiz-adv-x="618" d="M224 221 Q225 215 229 203.5 Q233 192 242.5 180.5 Q252 169 267.5 160.5 Q283 152 309 152 Q351 152 370.5 176 Q390 200 390 235 Q390 261 378.5 276 Q367 291 351 298.5 Q335 306 318 308 Q301 310 291 310 L224 310 L224 449 L256 449 Q262 449 277.5 450 Q293 451 309 458 Q325 465 337 480 Q349 495 349 523 Q349 547 337 567.5 Q325 588 297 588 Q276 588 264.5 580.5 Q253 573 247.5 562.5 Q242 552 240.5 541.5 Q239 531 239 524 L53 524 Q54 590 79.5 634.5 Q105 679 142.5 705.5 Q180 732 224 743 Q268 754 306 754 Q360 754 403 737 Q446 720 476 692 Q506 664 522 627.5 Q538 591 538 552 Q538 514 526.5 487 Q515 460 499 442 Q483 424 466.5 413.5 Q450 403 440 397 Q492 379 520.5 352.5 Q549 326 562 299 Q575 272 577 249.5 Q579 227 579 218 Q579 170 557 127.5 Q535 85 497.5 53.5 Q460 22 410.5 4 Q361 -14 305 -14 Q273 -14 239.5 -7.5 Q206 -1 175 11.5 Q144 24 118 43.5 Q92 63 74 90 Q62 108 54.5 127 Q47 146 42.5 163.5 Q38 181 36 196 Q34 211 33 221 L224 221 Z " />
<glyph glyph-name="four" unicode="4" horiz-adv-x="618" d="M15 130 L15 268 L346 740 L522 740 L522 278 L604 278 L604 130 L522 130 L522 0 L341 0 L341 130 L15 130 Z M353 278 L353 510 L351 510 L205 278 L353 278 Z " />
<glyph glyph-name="five" unicode="5" horiz-adv-x="618" d="M116 740 L525 740 L525 581 L261 581 L245 480 Q252 484 260.5 488 Q269 492 280.5 495 Q292 498 307.5 500 Q323 502 345 502 Q411 502 457.5 477.5 Q504 453 534 416 Q564 379 578 335.5 Q592 292 592 254 Q592 212 575.5 164.5 Q559 117 524.5 77 Q490 37 436.5 11 Q383 -15 308 -15 Q248 -15 200 2 Q152 19 116 48 Q80 77 57 115.5 Q34 154 26 198 L216 198 Q229 181 242.5 171.5 Q256 162 268 158 Q280 153 289 152.5 Q298 152 303 152 Q323 152 341.5 159.5 Q360 167 373.5 180.5 Q387 194 395 212 Q403 230 403 250 Q403 268 396.5 285.5 Q390 303 377 316.5 Q364 330 345.5 338.5 Q327 347 302 347 Q274 347 248 334 Q222 321 205 283 L52 321 L116 740 Z " />
<glyph glyph-name="six" unicode="6" horiz-adv-x="618" d="M329 517 L331 515 Q338 518 347 518.5 Q356 519 367 519 Q407 519 448.5 503.5 Q490 488 524 456.5 Q558 425 579 378 Q600 331 600 268 Q600 205 577 153 Q554 101 515 64 Q476 27 423.5 6.5 Q371 -14 313 -14 Q243 -14 182.5 11 Q122 36 84 86 Q49 126 35 177.5 Q21 229 21 272 Q21 329 41 378 Q61 427 89 470 L273 740 L492 740 L329 517 Z M207 255 Q207 229 216 209.5 Q225 190 239.5 177.5 Q254 165 272 158.5 Q290 152 307 152 Q328 152 347 159.5 Q366 167 380 180 Q394 193 402.5 211.5 Q411 230 411 252 Q411 270 404.5 288 Q398 306 384.5 320.5 Q371 335 351.5 344 Q332 353 307 353 Q262 353 234.5 323.5 Q207 294 207 255 Z " />
<glyph glyph-name="seven" unicode="7" horiz-adv-x="618" d="M547 740 L547 595 L287 0 L79 0 L352 581 L65 581 L65 740 L547 740 Z " />
<glyph glyph-name="eight" unicode="8" horiz-adv-x="618" d="M463 407 Q504 390 527 363 Q550 336 561.5 308 Q573 280 576 256 Q579 232 579 220 Q579 173 559 130.5 Q539 88 503 56 Q467 24 417.5 5 Q368 -14 310 -14 Q252 -14 202.5 5 Q153 24 116.5 56 Q80 88 59.5 130.5 Q39 173 39 220 Q39 230 41.5 254 Q44 278 55.5 306 Q67 334 90 361.5 Q113 389 155 407 Q146 414 133.5 425.5 Q121 437 110 453.5 Q99 470 91 493 Q83 516 83 546 Q83 586 98 623.5 Q113 661 142 690 Q171 719 213 736.5 Q255 754 309 754 Q364 754 406.5 736 Q449 718 477.5 688.5 Q506 659 520.5 622 Q535 585 535 548 Q535 517 527 493.5 Q519 470 507.5 453.5 Q496 437 484 425.5 Q472 414 463 407 Z M241 533 Q241 514 248 501 Q255 488 265 480 Q275 472 286.5 468.5 Q298 465 308 465 Q334 465 355.5 484 Q377 503 377 535 Q377 564 356.5 582.5 Q336 601 310 601 Q284 601 262.5 582.5 Q241 564 241 533 Z M228 237 Q228 203 250.5 177.5 Q273 152 312 152 Q330 152 344.5 159.5 Q359 167 369 179 Q379 191 384.5 206 Q390 221 390 236 Q390 251 384.5 266 Q379 281 369 293.5 Q359 306 343.5 313.5 Q328 321 309 321 Q277 321 252.5 299 Q228 277 228 237 Z " />
<glyph glyph-name="nine" unicode="9" horiz-adv-x="618" d="M291 224 L289 226 Q280 222 253 222 Q213 222 171.5 238 Q130 254 96.5 286 Q63 318 41.5 364.5 Q20 411 20 473 Q20 536 43 588 Q66 640 105 677 Q144 714 196 734 Q248 754 307 754 Q377 754 438 729.5 Q499 705 540 657 Q577 619 589.5 570.5 Q602 522 602 473 Q601 413 580.5 363.5 Q560 314 531 271 L347 0 L128 0 L291 224 Z M413 486 Q413 511 404 530.5 Q395 550 380 562.5 Q365 575 347 581.5 Q329 588 311 588 Q291 588 272.5 581 Q254 574 240 561 Q226 548 217.5 529.5 Q209 511 209 489 Q209 471 215.5 453 Q222 435 235 420.5 Q248 406 267 397 Q286 388 311 388 Q334 388 353 396 Q372 404 385.5 417.5 Q399 431 406 448.5 Q413 466 413 486 Z " />
<glyph glyph-name="colon" unicode="&#x3a;" horiz-adv-x="314" d="M159 510 Q202 510 232 479 Q263 449 263 407 Q263 364 232 333 Q202 303 160 303 Q117 303 86 333 Q56 364 56 406 Q56 449 86 479 Q116 510 159 510 Z M263 87 L263 88 Q263 45 232 15 Q202 -15 160 -15 Q117 -15 86 15 Q56 45 56 87 Q56 129 86 161 Q116 191 159 191 Q202 191 232 161 Q263 130 263 87 Z " />
<glyph glyph-name="semicolon" unicode="&#x3b;" horiz-adv-x="314" d="M122 -9 Q91 2 72 28 Q53 54 53 87 Q53 129 83 161 Q114 191 157 191 Q200 191 230 161 Q260 129 260 87 Q260 2 147 -156 L47 -156 Q98 -78 122 -9 Z M156 510 Q199 510 229 479 Q260 449 260 407 Q260 364 229 333 Q199 303 157 303 Q114 303 83 333 Q53 364 53 406 Q53 449 83 479 Q113 510 156 510 Z " />
<glyph glyph-name="less" unicode="&#x3c;" horiz-adv-x="600" d="M554 137 L554 -38 L46 176 L46 330 L554 544 L554 369 L214 254 L214 252 L554 137 Z " />
<glyph glyph-name="equal" unicode="&#x3d;" horiz-adv-x="600" d="M552 305 L48 305 L48 465 L552 465 L552 305 Z M552 41 L48 41 L48 201 L552 201 L552 41 Z " />
<glyph glyph-name="greater" unicode="&#x3e;" horiz-adv-x="600" d="M386 252 L386 254 L46 369 L46 544 L554 330 L554 176 L46 -38 L46 137 L386 252 Z " />
<glyph glyph-name="question" unicode="&#x3f;" horiz-adv-x="592" d="M49 487 Q48 494 48 497.5 Q48 501 48 505 Q48 559 67.5 604.5 Q87 650 122 683.5 Q157 717 205.5 735.5 Q254 754 311 754 Q369 754 414 735 Q459 716 489.5 685.5 Q520 655 535.5 617 Q551 579 551 542 Q551 507 541 479.5 Q531 452 515 428.5 Q499 405 478.5 385 Q458 365 438 346 Q414 323 399 307.5 Q384 292 376 279.5 Q368 267 365 257 Q362 247 361 235 L187 235 Q188 287 214.5 325.5 Q241 364 291 411 Q329 448 344 473 Q359 498 359 521 Q359 548 345.5 565.5 Q332 583 301 583 Q276 583 262 573.5 Q248 564 241.5 549.5 Q235 535 233.5 518 Q232 501 232 487 L49 487 Z M378 87 L378 88 Q378 45 347 15 Q317 -15 275 -15 Q232 -15 201 15 Q171 45 171 87 Q171 129 201 161 Q231 191 274 191 Q317 191 347 161 Q378 130 378 87 Z " />
<glyph glyph-name="at" unicode="&#x40;" horiz-adv-x="748" d="M584 548 L547 330 Q545 321 543 305.5 Q541 290 540 282 Q539 253 567 253 Q581 253 595.5 266.5 Q610 280 622 303.5 Q634 327 641.5 359 Q649 391 649 427 Q649 479 629.5 523 Q610 567 576 598.5 Q542 630 495 647.5 Q448 665 393 665 Q327 665 272.5 639.5 Q218 614 179.5 572 Q141 530 120 475.5 Q99 421 99 363 Q99 343 103 314 Q107 285 118.5 253 Q130 221 150.5 189.5 Q171 158 203.5 132.5 Q236 107 282.5 91 Q329 75 392 75 Q502 75 603 112 L624 20 Q586 6 548.5 -1 Q511 -8 479.5 -11.5 Q448 -15 424.5 -15.5 Q401 -16 392 -16 Q319 -16 261.5 1.5 Q204 19 160 48.5 Q116 78 85 116.5 Q54 155 34.5 197.5 Q15 240 6 283 Q-3 326 -3 365 Q-3 440 24.5 510 Q52 580 103 635 Q154 690 226.5 723 Q299 756 389 756 Q468 756 533 730.5 Q598 705 644.5 660.5 Q691 616 717 556 Q743 496 743 428 Q743 374 727 325 Q711 276 684 239 Q657 202 621.5 180.5 Q586 159 547 159 Q507 159 483.5 179 Q460 199 449 231 Q423 188 394.5 173.5 Q366 159 330 159 Q298 159 270 172.5 Q242 186 221 209.5 Q200 233 188 265.5 Q176 298 176 336 Q176 375 190 415 Q204 455 229.5 487 Q255 519 291 539.5 Q327 560 371 560 Q412 560 437 542 Q462 524 470 501 L472 501 L480 548 L584 548 Z M450 385 Q450 398 446.5 412.5 Q443 427 435.5 439 Q428 451 415.5 458.5 Q403 466 384 466 Q362 466 343.5 455 Q325 444 311.5 426.5 Q298 409 290.5 386.5 Q283 364 283 340 Q283 316 290 299.5 Q297 283 308 272.5 Q319 262 332 257.5 Q345 253 358 253 Q400 253 425 290.5 Q450 328 450 385 Z " />
<glyph glyph-name="A" unicode="A" horiz-adv-x="758" d="M251 107 L212 0 L9 0 L306 740 L455 740 L749 0 L544 0 L508 107 L251 107 Z M303 257 L458 257 L382 510 L381 510 L379 510 L303 257 Z " />
<glyph glyph-name="B" unicode="B" horiz-adv-x="647" d="M67 740 L295 740 Q342 740 377 737 Q412 734 440 726.5 Q468 719 490 704.5 Q512 690 532 668 Q557 642 566.5 610 Q576 578 576 546 Q576 503 555.5 463 Q535 423 490 397 Q535 381 559.5 356.5 Q584 332 595.5 306.5 Q607 281 609.5 259 Q612 237 612 225 Q612 180 595 136 Q578 92 544 64 Q518 43 495 30 Q472 17 444.5 10.5 Q417 4 383 2 Q349 0 302 0 L67 0 L67 740 Z M248 459 L315 459 Q325 459 338.5 460 Q352 461 364.5 466.5 Q377 472 386 484 Q395 496 395 518 Q395 539 386.5 550.5 Q378 562 366 567 Q354 572 340 573 Q326 574 315 574 L248 574 L248 459 Z M248 166 L337 166 Q346 166 362 167 Q378 168 393 175 Q408 182 419.5 196 Q431 210 431 237 Q431 261 420.5 274 Q410 287 395 293 Q380 299 364 300 Q348 301 337 301 L248 301 L248 166 Z " />
<glyph glyph-name="C" unicode="C" horiz-adv-x="832" d="M801 277 Q785 211 749.5 157.5 Q714 104 665 66 Q616 28 555 7 Q494 -14 427 -14 Q340 -14 268 18 Q196 50 145 103.5 Q94 157 65.5 226.5 Q37 296 37 371 Q37 442 63.5 510.5 Q90 579 140 633 Q190 687 262 720.5 Q334 754 425 754 Q512 754 579 724 Q646 694 692.5 650 Q739 606 766 554 Q793 502 801 459 L603 459 Q595 480 580.5 502.5 Q566 525 544 544 Q522 563 492 575.5 Q462 588 424 588 Q376 588 339.5 569 Q303 550 277.5 519.5 Q252 489 239 450 Q226 411 226 372 Q226 330 240 290.5 Q254 251 279.5 220 Q305 189 342 170.5 Q379 152 425 152 Q469 152 501 168 Q533 184 554 205 Q575 226 586.5 246.5 Q598 267 603 277 L801 277 Z " />
<glyph glyph-name="D" unicode="D" horiz-adv-x="742" d="M57 740 L302 740 Q333 740 374.5 738 Q416 736 460.5 723 Q505 710 549 682 Q593 654 629 602 Q667 549 682 491 Q697 433 697 372 Q697 296 677 228.5 Q657 161 612 110 Q567 59 494 29.5 Q421 0 316 0 L57 0 L57 740 Z M246 166 L327 166 Q380 166 415 183 Q450 200 470.5 228 Q491 256 499.5 293 Q508 330 508 369 Q508 401 500 437.5 Q492 474 472 506 Q464 518 452 530.5 Q440 543 423 552.5 Q406 562 382.5 568 Q359 574 328 574 L246 574 L246 166 Z " />
<glyph glyph-name="E" unicode="E" horiz-adv-x="528" d="M67 740 L478 740 L478 574 L248 574 L248 459 L471 459 L471 293 L248 293 L248 166 L478 166 L478 0 L67 0 L67 740 Z " />
<glyph glyph-name="F" unicode="F" horiz-adv-x="506" d="M67 740 L471 740 L471 574 L248 574 L248 448 L463 448 L463 282 L248 282 L248 0 L67 0 L67 740 Z " />
<glyph glyph-name="G" unicode="G" horiz-adv-x="854" d="M822 421 Q823 411 823 402 Q823 393 823 382 Q823 289 790 215.5 Q757 142 702.5 90.5 Q648 39 576.5 12 Q505 -15 428 -15 Q344 -15 272 15.5 Q200 46 147.5 99 Q95 152 65 222.5 Q35 293 35 373 Q35 456 66 526 Q97 596 151 646.5 Q205 697 277 725.5 Q349 754 431 754 Q497 754 557.5 733 Q618 712 667 676.5 Q716 641 751 593.5 Q786 546 801 492 L589 492 Q567 531 526.5 559.5 Q486 588 426 588 Q391 588 355 575 Q319 562 290 535.5 Q261 509 242.5 468.5 Q224 428 224 373 Q224 315 242.5 273 Q261 231 290.5 204 Q320 177 356 164 Q392 151 427 151 Q498 151 543.5 183.5 Q589 216 604 270 L383 270 L383 421 L822 421 Z " />
<glyph glyph-name="H" unicode="H" horiz-adv-x="754" d="M67 740 L256 740 L256 462 L498 462 L498 740 L687 740 L687 0 L498 0 L498 296 L256 296 L256 0 L67 0 L67 740 Z " />
<glyph glyph-name="I" unicode="I" horiz-adv-x="323" d="M67 740 L256 740 L256 0 L67 0 L67 740 Z " />
<glyph glyph-name="J" unicode="J" horiz-adv-x="578" d="M510 740 L510 293 Q510 246 507.5 213 Q505 180 499 156 Q493 132 484.5 115 Q476 98 464 83 Q426 34 369 10 Q312 -14 255 -14 Q250 -14 230 -13 Q210 -12 182.5 -5 Q155 2 124 17.5 Q93 33 67 61 Q41 89 23.5 132 Q6 175 6 238 L207 238 Q208 225 210 210 Q212 195 217.5 182 Q223 169 234 160.5 Q245 152 264 152 Q285 152 297 162 Q309 172 314 186.5 Q319 201 320 217 Q321 233 321 246 L321 740 L510 740 Z " />
<glyph glyph-name="K" unicode="K" horiz-adv-x="707" d="M87 740 L276 740 L276 407 L278 407 L487 740 L685 740 L440 371 L701 0 L480 0 L278 320 L276 320 L276 0 L87 0 L87 740 Z " />
<glyph glyph-name="L" unicode="L" horiz-adv-x="487" d="M72 740 L261 740 L261 166 L480 166 L480 0 L72 0 L72 740 Z " />
<glyph glyph-name="M" unicode="M" horiz-adv-x="915" d="M67 740 L310 740 L457 253 L459 253 L604 740 L848 740 L848 0 L674 0 L680 554 L678 556 L520 0 L395 0 L237 556 L235 554 L241 0 L67 0 L67 740 Z " />
<glyph glyph-name="N" unicode="N" horiz-adv-x="759" d="M67 740 L230 740 L516 275 L518 277 L510 740 L691 740 L691 0 L527 0 L245 450 L243 449 L248 0 L67 0 L67 740 Z " />
<glyph glyph-name="O" unicode="O" horiz-adv-x="851" d="M64 519 Q79 555 108 596 Q137 637 181.5 672.5 Q226 708 286.5 731 Q347 754 425 754 Q510 754 582 723 Q654 692 706 639.5 Q758 587 787 517 Q816 447 816 370 Q816 293 787 223 Q758 153 706 100.5 Q654 48 582 17 Q510 -14 424 -14 Q337 -14 265 18 Q193 50 142 102.5 Q91 155 63 222.5 Q35 290 35 361 Q35 398 41 438 Q47 478 64 519 Z M224 372 Q224 329 238 289.5 Q252 250 278.5 219.5 Q305 189 342.5 170.5 Q380 152 428 152 Q478 152 515.5 172.5 Q553 193 577.5 225 Q602 257 614.5 295 Q627 333 627 369 Q627 405 614.5 443.5 Q602 482 577.5 514.5 Q553 547 515 567.5 Q477 588 426 588 Q377 588 339 569 Q301 550 275.5 519 Q250 488 237 449.5 Q224 411 224 372 Z " />
<glyph glyph-name="P" unicode="P" horiz-adv-x="636" d="M67 740 L309 740 Q360 740 396.5 736 Q433 732 459.5 725 Q486 718 504 708 Q522 698 537 686 Q581 650 602.5 598.5 Q624 547 624 490 Q624 462 618.5 433.5 Q613 405 602.5 379.5 Q592 354 578 332.5 Q564 311 546 296 Q527 280 507 268 Q487 256 462 248 Q437 240 405 236 Q373 232 330 232 L248 232 L248 0 L67 0 L67 740 Z M248 398 L325 398 Q338 398 358.5 399.5 Q379 401 397.5 409 Q416 417 429.5 435.5 Q443 454 443 487 Q443 520 429 537.5 Q415 555 395.5 563 Q376 571 354.5 572.5 Q333 574 318 574 L248 574 L248 398 Z " />
<glyph glyph-name="Q" unicode="Q" horiz-adv-x="866" d="M676 -21 L620 35 Q578 12 528.5 -1 Q479 -14 424 -14 Q337 -14 265 18 Q193 50 142 102.5 Q91 155 63 222.5 Q35 290 35 361 Q35 398 41 438 Q47 478 64 519 Q79 555 108 596 Q137 637 181.5 672.5 Q226 708 286.5 731 Q347 754 425 754 Q510 754 582 723 Q654 692 706 639.5 Q758 587 787 517 Q816 447 816 370 Q816 301 793.5 239 Q771 177 729 126 L851 -21 L676 -21 Z M224 372 Q224 329 238 289.5 Q252 250 278.5 219.5 Q305 189 342.5 170.5 Q380 152 428 152 Q460 152 487 161 L323 305 L518 305 L589 241 Q608 270 617.5 303.5 Q627 337 627 369 Q627 405 614.5 443.5 Q602 482 577.5 514.5 Q553 547 515 567.5 Q477 588 426 588 Q377 588 339 569 Q301 550 275.5 519 Q250 488 237 449.5 Q224 411 224 372 Z " />
<glyph glyph-name="R" unicode="R" horiz-adv-x="653" d="M67 740 L301 740 Q350 740 385 737 Q420 734 446 727.5 Q472 721 491.5 711 Q511 701 529 687 Q575 651 597.5 596.5 Q620 542 620 485 Q620 453 611 416 Q602 379 580.5 345.5 Q559 312 523.5 286.5 Q488 261 436 252 L637 0 L421 0 L250 239 L248 239 L248 0 L67 0 L67 740 Z M248 368 L315 368 Q357 368 381.5 379.5 Q406 391 418.5 407.5 Q431 424 435 442 Q439 460 439 474 Q439 525 405.5 549.5 Q372 574 317 574 L248 574 L248 368 Z " />
<glyph glyph-name="S" unicode="S" horiz-adv-x="573" d="M357 524 Q355 533 352.5 545.5 Q350 558 343 569.5 Q336 581 323.5 588.5 Q311 596 289 596 Q264 596 244 580 Q224 564 224 538 Q224 521 229 510 Q234 499 250.5 487.5 Q267 476 297 461.5 Q327 447 377 425 Q429 402 462.5 378 Q496 354 515.5 328 Q535 302 542.5 273.5 Q550 245 550 213 Q550 172 537 131.5 Q524 91 494 59 Q464 27 414.5 6.5 Q365 -14 292 -14 Q212 -14 160 9.5 Q108 33 78 68 Q48 103 36.5 144 Q25 185 25 221 L25 245 L213 245 Q213 213 221.5 193 Q230 173 242.5 162 Q255 151 268 147.5 Q281 144 290 144 Q324 144 343 166.5 Q362 189 362 215 Q362 233 355.5 246 Q349 259 332.5 270 Q316 281 288 293.5 Q260 306 217 324 Q197 332 166.5 346.5 Q136 361 107 385.5 Q78 410 57 447 Q36 484 36 536 Q36 588 59 628.5 Q82 669 119 697 Q156 725 202 739.5 Q248 754 295 754 Q350 754 404.5 733.5 Q459 713 495 670 Q511 650 520.5 630.5 Q530 611 535 592.5 Q540 574 541.5 557 Q543 540 544 524 L357 524 Z " />
<glyph glyph-name="T" unicode="T" horiz-adv-x="499" d="M156 574 L10 574 L10 740 L490 740 L490 574 L345 574 L345 0 L156 0 L156 574 Z " />
<glyph glyph-name="U" unicode="U" horiz-adv-x="698" d="M254 740 L254 293 Q254 274 256 249.5 Q258 225 267 203.5 Q276 182 295.5 167 Q315 152 350 152 Q385 152 404 165.5 Q423 179 432 200 Q441 221 442.5 246 Q444 271 444 293 L444 740 L633 740 L633 293 Q633 246 628 211.5 Q623 177 613.5 151 Q604 125 590.5 104.5 Q577 84 559 66 Q523 29 472 7.5 Q421 -14 352 -14 Q332 -14 304.5 -11 Q277 -8 248 0.5 Q219 9 190.5 24.5 Q162 40 139 65 Q116 90 101.5 113.5 Q87 137 79 163 Q71 189 68 220.5 Q65 252 65 293 L65 740 L254 740 Z " />
<glyph glyph-name="V" unicode="V" horiz-adv-x="722" d="M210 740 L359 221 L361 221 L511 740 L706 740 L458 0 L263 0 L16 740 L210 740 Z " />
<glyph glyph-name="W" unicode="W" horiz-adv-x="981" d="M208 740 L307 259 L309 259 L418 740 L563 740 L670 257 L672 257 L773 740 L964 740 L768 0 L602 0 L491 479 L489 479 L378 0 L207 0 L16 740 L208 740 Z " />
<glyph glyph-name="X" unicode="X" horiz-adv-x="759" d="M718 740 L492 390 L748 0 L534 0 L374 262 L222 0 L11 0 L270 394 L41 740 L255 740 L382 529 L505 740 L718 740 Z " />
<glyph glyph-name="Y" unicode="Y" horiz-adv-x="647" d="M230 269 L9 740 L214 740 L324 443 L435 740 L638 740 L419 269 L419 0 L230 0 L230 269 Z " />
<glyph glyph-name="Z" unicode="Z" horiz-adv-x="499" d="M16 124 L271 574 L16 574 L16 740 L483 740 L483 587 L247 166 L483 166 L483 0 L16 0 L16 124 Z " />
<glyph glyph-name="bracketleft" unicode="&#x5b;" horiz-adv-x="473" d="M401 580 Q363 578 341.5 565 Q320 552 309 533 Q298 514 295 491 Q292 468 292 446 L292 44 Q292 21 295 -2 Q298 -25 309 -44 Q320 -63 341.5 -75.5 Q363 -88 401 -90 L401 -264 Q387 -263 367 -261.5 Q347 -260 323 -254 Q299 -248 271 -236 Q243 -224 215 -204 Q174 -176 151.5 -141 Q129 -106 118.5 -70.5 Q108 -35 106 -3.5 Q104 28 104 51 L104 439 Q104 466 106.5 498.5 Q109 531 120 565 Q131 599 153.5 632 Q176 665 215 694 Q243 715 271 726.5 Q299 738 324 744 Q349 750 369 751.5 Q389 753 401 754 L401 580 Z " />
<glyph glyph-name="backslash" unicode="&#x5c;" horiz-adv-x="593" d="M336 -100 L72 740 L256 740 L521 -100 L336 -100 Z " />
<glyph glyph-name="bracketright" unicode="&#x5d;" horiz-adv-x="473" d="M72 -90 Q110 -88 131.5 -75 Q153 -62 164 -43 Q175 -24 178 -1 Q181 22 181 44 L181 446 Q181 468 178 491.5 Q175 515 164 534 Q153 553 131 565.5 Q109 578 72 580 L72 754 Q85 753 105.5 751 Q126 749 150 743 Q174 737 201.5 725.5 Q229 714 258 694 Q299 665 321.5 630.5 Q344 596 354.5 560.5 Q365 525 367 493 Q369 461 369 439 L369 51 Q369 24 366.5 -8.5 Q364 -41 353 -75 Q342 -109 319.5 -142 Q297 -175 258 -204 Q230 -225 202 -236.5 Q174 -248 149 -254 Q124 -260 104 -261.5 Q84 -263 72 -264 L72 -90 Z " />
<glyph glyph-name="asciicircum" unicode="&#x5e;" horiz-adv-x="600" d="M43 375 L217 740 L383 740 L557 375 L377 375 L301 598 L299 598 L222 375 L43 375 Z " />
<glyph glyph-name="underscore" unicode="&#x5f;" horiz-adv-x="500" d="M0 -125 L0 -75 L500 -75 L500 -125 L0 -125 Z " />
<glyph glyph-name="quoteleft" unicode="&#x2018;" horiz-adv-x="314" d="M268 711 Q217 635 192 564 Q223 554 242 527 Q261 501 261 467 Q261 425 231 394 Q201 364 158 364 Q115 364 85 394 Q55 424 55 467 Q55 554 167 711 L268 711 Z " />
<glyph glyph-name="a" unicode="a" horiz-adv-x="704" d="M643 0 L477 0 L477 60 L475 60 Q464 40 447 25 Q430 10 408 0 Q386 -10 361.5 -14.5 Q337 -19 313 -19 Q247 -19 195 5 Q143 29 107.5 70 Q72 111 53 164.5 Q34 218 34 278 Q34 346 57 401 Q80 456 118 494.5 Q156 533 206.5 553.5 Q257 574 313 574 Q347 574 374 566.5 Q401 559 421 547.5 Q441 536 454 522.5 Q467 509 475 496 L477 496 L477 555 L643 555 L643 0 Z M200 276 Q200 256 207.5 232 Q215 208 231.5 186.5 Q248 165 274 150.5 Q300 136 338 136 Q377 136 403.5 150.5 Q430 165 446.5 186.5 Q463 208 470 233 Q477 258 477 278 Q477 303 468.5 328 Q460 353 442.5 373.5 Q425 394 398.5 406.5 Q372 419 337 419 Q301 419 275.5 405.5 Q250 392 233 371 Q216 350 208 325 Q200 300 200 276 Z " />
<glyph glyph-name="b" unicode="b" horiz-adv-x="693" d="M60 740 L226 740 L226 511 Q248 535 272.5 547.5 Q297 560 319.5 566 Q342 572 360 573 Q378 574 387 574 Q430 574 478.5 557.5 Q527 541 567 506 Q607 471 633.5 415.5 Q660 360 660 281 Q660 206 636 149.5 Q612 93 573 55.5 Q534 18 483.5 -0.5 Q433 -19 380 -19 Q321 -19 279 5 Q237 29 221 59 L219 59 L219 0 L60 0 L60 740 Z M220 279 Q220 250 229.5 224 Q239 198 256.5 178.5 Q274 159 299 147.5 Q324 136 355 136 Q387 136 412.5 148 Q438 160 456 179.5 Q474 199 484 225 Q494 251 494 278 Q494 305 484.5 330.5 Q475 356 457 375.5 Q439 395 414 407 Q389 419 358 419 Q325 419 299.5 407 Q274 395 256 375 Q238 355 229 330 Q220 305 220 279 Z " />
<glyph glyph-name="c" unicode="c" horiz-adv-x="652" d="M621 211 Q610 164 584 122 Q558 80 520.5 49 Q483 18 434.5 0 Q386 -18 330 -18 Q267 -18 212.5 5 Q158 28 118.5 68.5 Q79 109 56 163 Q33 217 33 279 Q33 340 55.5 394 Q78 448 117.5 488 Q157 528 210.5 551 Q264 574 326 574 Q381 574 430 556.5 Q479 539 517.5 508.5 Q556 478 582.5 435 Q609 392 620 341 L452 341 Q445 355 435 369 Q425 383 411 394 Q397 405 377.5 412 Q358 419 332 419 Q302 420 278 409.5 Q254 399 236.5 380 Q219 361 209.5 334.5 Q200 308 200 278 Q200 248 209.5 222 Q219 196 236.5 177 Q254 158 278 147.5 Q302 137 332 137 Q358 137 377.5 144 Q397 151 411 161.5 Q425 172 435 185 Q445 198 452 211 L621 211 Z " />
<glyph glyph-name="d" unicode="d" horiz-adv-x="698" d="M638 0 L480 0 L480 60 L478 60 Q473 51 462 38 Q451 25 431.5 12.5 Q412 0 383 -9 Q354 -18 312 -18 Q249 -18 197.5 5 Q146 28 110 68 Q74 108 54 162 Q34 216 34 279 Q34 349 57 404 Q80 459 118.5 497 Q157 535 206.5 554.5 Q256 574 309 574 Q346 574 373.5 566 Q401 558 420.5 547.5 Q440 537 452.5 526 Q465 515 472 508 L472 740 L638 740 L638 0 Z M200 280 Q200 248 210.5 221.5 Q221 195 240 176 Q259 157 284.5 147 Q310 137 339 137 Q378 137 405 151 Q432 165 449 186.5 Q466 208 473.5 233 Q481 258 481 280 Q481 305 472 330 Q463 355 445.5 374.5 Q428 394 401.5 406.5 Q375 419 341 419 Q305 419 278.5 406.5 Q252 394 234.5 373.5 Q217 353 208.5 328.5 Q200 304 200 280 Z " />
<glyph glyph-name="e" unicode="e" horiz-adv-x="646" d="M595 174 Q575 127 546 91.5 Q517 56 482 32 Q412 -18 324 -18 Q264 -18 211 4.5 Q158 27 117.5 67 Q77 107 53.5 160.5 Q30 214 30 276 Q30 334 51.5 388 Q73 442 112 483 Q151 524 204.5 549 Q258 574 321 574 Q384 574 438 550.5 Q492 527 531 486 Q570 445 592 389.5 Q614 334 614 271 Q614 254 613 245.5 Q612 237 610 227 L194 227 Q202 177 238.5 149.5 Q275 122 324 122 Q362 122 385 137 Q408 152 425 174 L595 174 Z M448 339 Q445 351 437.5 367.5 Q430 384 415 399 Q400 414 377 424 Q354 434 322 434 Q290 434 267 424 Q244 414 229 399 Q214 384 206.5 367.5 Q199 351 196 339 L448 339 Z " />
<glyph glyph-name="f" unicode="f" horiz-adv-x="314" d="M66 429 L4 429 L4 555 L66 555 L66 584 Q66 642 87.5 676 Q109 710 141.5 727.5 Q174 745 211 749.5 Q248 754 278 754 L302 754 L302 629 L283 629 Q278 629 269 627.5 Q260 626 252 620.5 Q244 615 238 605 Q232 595 232 577 L232 555 L302 555 L302 429 L232 429 L232 0 L66 0 L66 429 Z " />
<glyph glyph-name="g" unicode="g" horiz-adv-x="693" d="M635 67 Q635 5 628.5 -38 Q622 -81 602 -116 Q586 -142 559.5 -166 Q533 -190 497 -208 Q461 -226 416.5 -236.5 Q372 -247 321 -247 Q249 -247 198 -227.5 Q147 -208 114 -179 Q81 -150 64.5 -116 Q48 -82 44 -52 L236 -52 Q245 -73 259.5 -84 Q274 -95 289 -100 Q304 -105 316.5 -106 Q329 -107 333 -107 Q341 -107 363 -104.5 Q385 -102 408.5 -87.5 Q432 -73 450 -42.5 Q468 -12 468 44 L468 61 L466 61 Q460 49 447.5 35 Q435 21 416 9.5 Q397 -2 372 -10 Q347 -18 314 -18 Q257 -18 206.5 2.5 Q156 23 117.5 61 Q79 99 56.5 153 Q34 207 34 274 Q34 345 57.5 400.5 Q81 456 120 494.5 Q159 533 209.5 553 Q260 573 314 573 Q361 573 402.5 556 Q444 539 467 503 L469 503 L469 555 L635 555 L635 67 Z M200 280 Q200 247 211 220.5 Q222 194 240.5 175.5 Q259 157 283 147 Q307 137 333 137 Q363 137 388 147.5 Q413 158 431 176 Q449 194 459 219.5 Q469 245 469 275 Q469 308 458.5 334.5 Q448 361 429.5 379.5 Q411 398 386.5 408 Q362 418 334 418 Q307 418 283 408 Q259 398 240.5 379.5 Q222 361 211 335.5 Q200 310 200 280 Z " />
<glyph glyph-name="h" unicode="h" horiz-adv-x="632" d="M60 740 L226 740 L226 504 L228 504 Q249 542 287.5 558 Q326 574 371 574 Q391 574 412 570.5 Q433 567 453 559.5 Q473 552 491 540.5 Q509 529 522 513 Q540 492 550 472 Q560 452 565.5 428 Q571 404 572.5 375.5 Q574 347 574 310 L574 0 L408 0 L408 302 Q408 312 406.5 331.5 Q405 351 397 370 Q389 389 370.5 403.5 Q352 418 319 418 Q284 418 265 404.5 Q246 391 237.5 373 Q229 355 227.5 336.5 Q226 318 226 308 L226 0 L60 0 L60 740 Z " />
<glyph glyph-name="i" unicode="i" horiz-adv-x="286" d="M226 0 L60 0 L60 555 L226 555 L226 0 Z M226 614 L60 614 L60 740 L226 740 L226 614 Z " />
<glyph glyph-name="j" unicode="j" horiz-adv-x="321" d="M253 12 Q253 -36 246.5 -76 Q240 -116 218.5 -144.5 Q197 -173 156 -188.5 Q115 -204 47 -204 L6 -204 L6 -78 L28 -78 Q50 -78 62 -70.5 Q74 -63 79.5 -51 Q85 -39 86 -24 Q87 -9 87 6 L87 555 L253 555 L253 12 Z M252 614 L86 614 L86 740 L252 740 L252 614 Z " />
<glyph glyph-name="k" unicode="k" horiz-adv-x="591" d="M66 740 L232 740 L232 354 L234 354 L388 555 L585 555 L376 311 L579 0 L391 0 L234 267 L232 267 L232 0 L66 0 L66 740 Z " />
<glyph glyph-name="l" unicode="l" horiz-adv-x="286" d="M60 740 L226 740 L226 0 L60 0 L60 740 Z " />
<glyph glyph-name="m" unicode="m" horiz-adv-x="969" d="M60 555 L215 555 L215 496 L217 496 Q222 505 232 518 Q242 531 259.5 543.5 Q277 556 304 565 Q331 574 370 574 Q388 574 409.5 570 Q431 566 452 555 Q473 544 493 525 Q513 506 530 475 Q556 516 599 545 Q642 574 706 574 Q721 574 739 572 Q757 570 776.5 564 Q796 558 815.5 547 Q835 536 852 518 Q871 497 883 478.5 Q895 460 901.5 436 Q908 412 910 380.5 Q912 349 912 303 L912 0 L746 0 L746 295 Q746 312 744.5 333.5 Q743 355 735 373.5 Q727 392 710 405 Q693 418 661 418 Q626 418 607.5 404.5 Q589 391 580.5 372 Q572 353 570.5 334 Q569 315 569 303 L569 0 L403 0 L403 302 Q403 313 401.5 332.5 Q400 352 392.5 371 Q385 390 368 404 Q351 418 320 418 Q285 418 266 403.5 Q247 389 238 369 Q229 349 227.5 328 Q226 307 226 295 L226 0 L60 0 L60 555 Z " />
<glyph glyph-name="n" unicode="n" horiz-adv-x="632" d="M60 555 L215 555 L215 496 L217 496 Q223 506 233.5 519.5 Q244 533 261.5 545 Q279 557 305 565.5 Q331 574 368 574 Q408 574 447.5 560 Q487 546 510 526 Q521 516 532.5 502.5 Q544 489 553 468 Q562 447 568 417.5 Q574 388 574 347 L574 0 L408 0 L408 303 Q408 318 406.5 337.5 Q405 357 397 375 Q389 393 371.5 405.5 Q354 418 321 418 Q285 418 266 404.5 Q247 391 238 372.5 Q229 354 227.5 334.5 Q226 315 226 302 L226 0 L60 0 L60 555 Z " />
<glyph glyph-name="o" unicode="o" horiz-adv-x="666" d="M34 278 Q34 329 52.5 381.5 Q71 434 108 476.5 Q145 519 201 546 Q257 573 333 573 Q409 573 465 546 Q521 519 558 476.5 Q595 434 613.5 381.5 Q632 329 632 278 Q632 227 613.5 174.5 Q595 122 558 79.5 Q521 37 465 10 Q409 -17 333 -17 Q257 -17 201 10 Q145 37 108 79.5 Q71 122 52.5 174.5 Q34 227 34 278 Z M200 278 Q200 248 210.5 222 Q221 196 239.5 177.5 Q258 159 282 148.5 Q306 138 333 138 Q360 138 384 148.5 Q408 159 426.5 177.5 Q445 196 455.5 222 Q466 248 466 278 Q466 308 455.5 334 Q445 360 426.5 378.5 Q408 397 384 407.5 Q360 418 333 418 Q306 418 282 407.5 Q258 397 239.5 378.5 Q221 360 210.5 334 Q200 308 200 278 Z " />
<glyph glyph-name="p" unicode="p" horiz-adv-x="697" d="M60 555 L216 555 L216 494 L217 494 L219 494 Q244 526 286 550 Q328 574 392 574 Q466 574 517.5 545 Q569 516 601.5 471.5 Q634 427 648.5 373.5 Q663 320 663 272 Q663 212 643 159 Q623 106 587 66.5 Q551 27 501.5 4 Q452 -19 393 -19 Q355 -19 327.5 -11 Q300 -3 279.5 8 Q259 19 246 30.5 Q233 42 226 50 L226 -185 L60 -185 L60 555 Z M358 136 Q391 136 416.5 148 Q442 160 460 180 Q478 200 487.5 225.5 Q497 251 497 277 Q497 302 488 327 Q479 352 461.5 372.5 Q444 393 418 406 Q392 419 358 419 Q324 419 298 406 Q272 393 254.5 372.5 Q237 352 228 327 Q219 302 219 277 Q219 251 228.5 225.5 Q238 200 256 180 Q274 160 299.5 148 Q325 136 358 136 Z " />
<glyph glyph-name="q" unicode="q" horiz-adv-x="698" d="M638 -185 L472 -185 L472 57 L470 57 Q463 47 450.5 34 Q438 21 418.5 9.5 Q399 -2 370.5 -10 Q342 -18 302 -18 Q243 -18 194 4 Q145 26 109.5 64.5 Q74 103 54 155 Q34 207 34 267 Q34 339 56 396 Q78 453 116.5 492.5 Q155 532 205.5 553 Q256 574 313 574 Q353 574 382 564.5 Q411 555 430.5 541.5 Q450 528 461 514.5 Q472 501 477 494 L479 494 L479 555 L638 555 L638 -185 Z M200 274 Q200 252 208.5 228 Q217 204 234.5 183.5 Q252 163 278 150 Q304 137 340 137 Q373 137 398.5 149.5 Q424 162 441.5 182 Q459 202 468.5 227 Q478 252 478 277 Q478 299 470 324 Q462 349 445 370 Q428 391 401.5 405 Q375 419 338 419 Q305 419 279 406.5 Q253 394 235.5 374 Q218 354 209 327.5 Q200 301 200 274 Z " />
<glyph glyph-name="r" unicode="r" horiz-adv-x="363" d="M59 555 L215 555 L215 496 L217 496 Q222 506 231 519.5 Q240 533 255.5 545 Q271 557 295.5 565.5 Q320 574 356 574 L356 407 Q327 406 303 402 Q279 398 261.5 387 Q244 376 234.5 356 Q225 336 225 305 L225 0 L59 0 L59 555 Z " />
<glyph glyph-name="s" unicode="s" horiz-adv-x="499" d="M296 399 Q296 403 294.5 410.5 Q293 418 288 424.5 Q283 431 272.5 436 Q262 441 244 441 Q218 441 207.5 428 Q197 415 197 404 Q197 381 223 367.5 Q249 354 282 344 Q317 334 352 322.5 Q387 311 414.5 292 Q442 273 459 244 Q476 215 476 170 Q476 126 458 91 Q440 56 409 31.5 Q378 7 337 -6 Q296 -19 250 -19 Q218 -19 181 -11 Q144 -3 111 18 Q78 39 54 74.5 Q30 110 24 165 L189 165 Q192 146 201 135.5 Q210 125 220.5 120.5 Q231 116 240 115 Q249 114 252 114 Q273 114 291.5 125.5 Q310 137 310 157 Q310 173 302 183 Q294 193 276.5 202 Q259 211 231 221 Q203 231 163 246 Q136 255 112 268 Q88 281 70 299 Q52 317 41.5 340 Q31 363 31 391 Q31 432 48.5 466 Q66 500 95.5 524 Q125 548 164 561 Q203 574 246 574 Q273 574 308 567 Q343 560 374.5 541 Q406 522 430 488 Q454 454 459 399 L296 399 Z " />
<glyph glyph-name="t" unicode="t" horiz-adv-x="351" d="M259 555 L339 555 L339 429 L259 429 L259 0 L93 0 L93 429 L11 429 L11 555 L93 555 L93 740 L259 740 L259 555 Z " />
<glyph glyph-name="u" unicode="u" horiz-adv-x="634" d="M574 0 L417 0 L417 59 L415 59 Q402 32 384 17 Q366 2 346 -6 Q326 -14 306.5 -16 Q287 -18 271 -18 Q258 -18 238 -16 Q218 -14 195 -6.5 Q172 1 149 15 Q126 29 108 52 Q91 73 81.5 91.5 Q72 110 66.5 129.5 Q61 149 59.5 171.5 Q58 194 58 223 L58 555 L224 555 L224 248 Q224 234 225.5 214.5 Q227 195 235 178 Q243 161 261.5 149 Q280 137 313 137 Q331 137 348 142.5 Q365 148 378.5 160.5 Q392 173 400 195 Q408 217 408 250 L408 555 L574 555 L574 0 Z " />
<glyph glyph-name="v" unicode="v" horiz-adv-x="592" d="M375 0 L216 0 L17 555 L189 555 L295 209 L297 209 L403 555 L575 555 L375 0 Z " />
<glyph glyph-name="w" unicode="w" horiz-adv-x="850" d="M179 555 L262 210 L264 210 L355 555 L495 555 L587 210 L589 210 L672 555 L843 555 L673 0 L519 0 L426 359 L424 359 L331 0 L177 0 L7 555 L179 555 Z " />
<glyph glyph-name="x" unicode="x" horiz-adv-x="630" d="M600 555 L413 297 L628 0 L425 0 L314 172 L201 0 L1 0 L212 297 L25 555 L224 555 L314 409 L403 555 L600 555 Z " />
<glyph glyph-name="y" unicode="y" horiz-adv-x="574" d="M573 555 L295 -185 L119 -185 L207 28 L1 555 L178 555 L289 233 L291 233 L397 555 L573 555 Z " />
<glyph glyph-name="z" unicode="z" horiz-adv-x="444" d="M428 126 L428 0 L15 0 L15 114 L249 429 L15 429 L15 555 L428 555 L428 429 L211 126 L428 126 Z " />
<glyph glyph-name="braceleft" unicode="&#x7b;" horiz-adv-x="554" d="M428 614 Q408 614 396.5 607.5 Q385 601 379 591.5 Q373 582 371.5 570.5 Q370 559 370 549 L370 340 Q370 304 358 283.5 Q346 263 329 252.5 Q312 242 293.5 239 Q275 236 262 235 L262 231 Q275 230 293.5 226 Q312 222 329 211.5 Q346 201 358 183.5 Q370 166 370 139 L370 -73 Q370 -83 371.5 -94.5 Q373 -106 379 -115.5 Q385 -125 396.5 -131.5 Q408 -138 428 -138 L483 -138 L483 -264 L355 -264 Q326 -264 298.5 -256 Q271 -248 249.5 -231 Q228 -214 215 -188 Q202 -162 202 -126 L202 86 Q202 107 190 119 Q178 131 162.5 137 Q147 143 130.5 145 Q114 147 105 147 L105 319 Q114 319 130.5 321 Q147 323 162.5 330 Q178 337 190 350 Q202 363 202 386 L202 602 Q202 638 215 664 Q228 690 249.5 707 Q271 724 298.5 732 Q326 740 355 740 L483 740 L483 614 L428 614 Z " />
<glyph glyph-name="bar" unicode="&#x7c;" horiz-adv-x="555" d="M369 740 L369 -100 L186 -100 L186 740 L369 740 Z " />
<glyph glyph-name="braceright" unicode="&#x7d;" horiz-adv-x="554" d="M71 614 L71 740 L199 740 Q228 740 255.5 732 Q283 724 304.5 707 Q326 690 339 664 Q352 638 352 602 L352 386 Q352 363 364 350 Q376 337 391.5 330 Q407 323 423.5 321 Q440 319 449 319 L449 147 Q440 147 423.5 145 Q407 143 391.5 137 Q376 131 364 119 Q352 107 352 86 L352 -126 Q352 -162 339 -188 Q326 -214 304.5 -231 Q283 -248 255.5 -256 Q228 -264 199 -264 L71 -264 L71 -138 L126 -138 Q146 -138 157.5 -131.5 Q169 -125 175 -115.5 Q181 -106 182.5 -94.5 Q184 -83 184 -73 L184 139 Q184 166 196 183.5 Q208 201 225 211.5 Q242 222 260.5 226 Q279 230 292 231 L292 235 Q279 236 260.5 239 Q242 242 225 252.5 Q208 263 196 283.5 Q184 304 184 340 L184 549 Q184 559 182.5 570.5 Q181 582 175 591.5 Q169 601 157.5 607.5 Q146 614 126 614 L71 614 Z " />
<glyph glyph-name="asciitilde" unicode="&#x7e;" horiz-adv-x="600" d="M533 219 Q521 203 508.5 187 Q496 171 481 158.5 Q466 146 447.5 138.5 Q429 131 406 131 Q378 131 353.5 140.5 Q329 150 304 164 Q280 178 252 188.5 Q224 199 189 199 Q156 199 136.5 177 Q117 155 103 130 L67 286 Q76 302 87.5 318 Q99 334 114.5 347 Q130 360 149.5 367.5 Q169 375 194 375 Q220 375 248 365.5 Q276 356 305 343 Q333 331 360 319 Q387 307 407 307 Q437 307 457.5 329 Q478 351 497 377 L533 219 Z " />
<glyph glyph-name="exclamdown" unicode="&#xa1;" horiz-adv-x="333" d="M252 311 L81 311 L81 -185 L252 -185 L252 311 Z M166 569 Q207 569 239 539 Q269 509 269 466 Q269 423 239 393 Q209 363 166 363 Q124 363 93 393 Q63 423 63 465 Q63 507 93 539 Q123 569 166 569 Z " />
<glyph glyph-name="cent" unicode="&#xa2;" horiz-adv-x="618" d="M372 619 Q417 607 451 583.5 Q485 560 507.5 531.5 Q530 503 542 473.5 Q554 444 556 420 L384 420 Q373 439 354 449.5 Q335 460 313 460 Q279 460 253 436 Q227 412 227 375 Q227 340 251.5 315.5 Q276 291 313 291 Q342 291 357 302.5 Q372 314 380 325 L556 325 Q551 297 537.5 267.5 Q524 238 502 211.5 Q480 185 449 165 Q418 145 378 136 L378 31 L241 31 L241 136 Q187 154 152 183.5 Q117 213 97.5 246.5 Q78 280 70 313.5 Q62 347 62 373 Q62 406 71.5 442 Q81 478 102.5 511.5 Q124 545 158 572.5 Q192 600 241 615 L241 720 L372 720 L372 619 Z " />
<glyph glyph-name="sterling" unicode="&#xa3;" horiz-adv-x="618" d="M607 252 Q611 240 614.5 226 Q618 212 618 188 Q618 165 607.5 133 Q597 101 572 71.5 Q547 42 505 21 Q463 0 399 0 L44 0 L44 148 L93 148 Q111 148 127.5 149.5 Q144 151 156.5 157 Q169 163 176.5 173.5 Q184 184 184 202 Q184 229 166 252 L142 284 L14 284 L14 417 L62 417 Q34 459 34 511 Q34 554 52 597.5 Q70 641 104 676 Q138 711 187.5 733 Q237 755 300 755 Q374 755 432.5 723 Q491 691 524 637 Q545 603 551.5 573 Q558 543 562 508 L388 508 Q387 518 383 532 Q379 546 370 559 Q361 572 345 580.5 Q329 589 303 589 Q284 589 269.5 581.5 Q255 574 244.5 562 Q234 550 228.5 535.5 Q223 521 223 506 Q223 470 234.5 450 Q246 430 257 417 L413 417 L413 284 L336 284 Q349 269 359 253 Q369 237 369 215 Q369 191 356.5 176 Q344 161 330 148 L371 148 Q381 148 395 150 Q409 152 422 158.5 Q435 165 444 178.5 Q453 192 453 216 Q453 224 452 231 Q451 238 446 252 L607 252 Z " />
<glyph glyph-name="fraction" unicode="&#x2044;" horiz-adv-x="211" d="M329 740 L18 0 L-118 0 L192 740 L329 740 Z " />
<glyph glyph-name="yen" unicode="&#xa5;" horiz-adv-x="618" d="M215 167 L19 167 L19 306 L215 306 L215 333 L189 385 L21 385 L21 523 L120 523 L1 740 L201 740 L310 503 L421 740 L618 740 L501 523 L598 523 L598 385 L428 385 L402 336 L402 306 L598 306 L598 167 L401 167 L401 0 L215 0 L215 167 Z " />
<glyph glyph-name="florin" unicode="&#x192;" horiz-adv-x="618" d="M507 591 L484 466 L412 466 L355 140 Q349 109 343.5 82 Q338 55 330.5 30.5 Q323 6 312 -16.5 Q301 -39 284 -60 Q243 -110 187 -131 Q131 -152 79 -152 Q74 -152 56.5 -151.5 Q39 -151 25 -146 L51 2 Q57 1 60.5 0.5 Q64 0 69 0 Q100 0 120 8.5 Q140 17 152.5 32.5 Q165 48 171 70 Q177 92 182 118 L242 466 L170 466 L191 591 L264 591 L270 623 Q280 680 307.5 717.5 Q335 755 369.5 777.5 Q404 800 440 809 Q476 818 505 818 Q511 818 523.5 817.5 Q536 817 547 815 L525 682 Q499 682 482.5 675 Q466 668 456.5 655.5 Q447 643 442 626.5 Q437 610 434 591 L507 591 Z " />
<glyph glyph-name="section" unicode="&#xa7;" horiz-adv-x="670" d="M421 548 Q416 567 405.5 578.5 Q395 590 382.5 596 Q370 602 357 604 Q344 606 334 606 Q325 606 312.5 604 Q300 602 289.5 596.5 Q279 591 271.5 580.5 Q264 570 264 553 Q264 541 269.5 532 Q275 523 284 516 Q293 509 303.5 503.5 Q314 498 323 494 L505 412 Q523 404 545 392 Q567 380 586 360.5 Q605 341 617.5 313.5 Q630 286 630 246 Q630 217 622.5 194 Q615 171 602.5 152 Q590 133 574.5 117.5 Q559 102 544 88 Q560 66 577.5 33.5 Q595 1 595 -53 Q595 -93 580 -132 Q565 -171 534 -202 Q503 -233 456 -252 Q409 -271 345 -271 Q328 -271 302 -268 Q276 -265 246 -256 Q216 -247 185.5 -230.5 Q155 -214 129.5 -188 Q104 -162 86.5 -124.5 Q69 -87 65 -35 L229 -35 Q234 -67 249 -84 Q264 -101 281.5 -109 Q299 -117 316 -118.5 Q333 -120 342 -120 Q368 -120 385 -113.5 Q402 -107 412.5 -97 Q423 -87 427.5 -75.5 Q432 -64 432 -55 Q432 -40 424 -28.5 Q416 -17 403.5 -7.5 Q391 2 375.5 10 Q360 18 344 25 L173 104 Q154 113 131 125.5 Q108 138 87.5 158 Q67 178 53.5 208.5 Q40 239 40 284 Q40 291 41.5 307.5 Q43 324 52 345.5 Q61 367 80 393 Q99 419 135 445 Q121 468 112.5 494.5 Q104 521 104 556 Q104 609 125.5 646.5 Q147 684 181 708 Q215 732 258 743 Q301 754 343 754 Q400 754 444.5 736.5 Q489 719 519.5 690 Q550 661 566 624 Q582 587 584 548 L421 548 Z M230 367 Q215 360 207.5 351.5 Q200 343 196 335 Q192 327 191.5 321 Q191 315 191 312 Q191 297 196.5 287 Q202 277 210 269.5 Q218 262 227 257 Q236 252 244 249 L446 156 Q463 167 473 182.5 Q483 198 483 218 Q483 240 465 255 Q447 270 415 284 L230 367 Z " />
<glyph glyph-name="currency" unicode="&#xa4;" horiz-adv-x="618" d="M309 451 Q286 451 266.5 442 Q247 433 232.5 418 Q218 403 209.5 383 Q201 363 201 341 Q201 318 209.5 298 Q218 278 232.5 263 Q247 248 266.5 239.5 Q286 231 309 231 Q331 231 350.5 239.5 Q370 248 385 263 Q400 278 408.5 298 Q417 318 417 341 Q417 363 408.5 383 Q400 403 385.5 418 Q371 433 351.5 442 Q332 451 309 451 Z M0 569 L82 651 L170 563 Q233 603 309 603 Q347 603 382 593 Q417 583 446 564 L534 650 L614 569 L529 484 Q549 452 560.5 416 Q572 380 572 340 Q572 302 562 267.5 Q552 233 534 204 L618 120 L537 38 L455 121 Q423 100 386.5 88.5 Q350 77 309 77 Q269 77 232.5 88.5 Q196 100 164 121 L81 39 L0 119 L85 204 Q46 266 46 340 Q46 380 57 416.5 Q68 453 88 483 L0 569 Z " />
<glyph glyph-name="quotesingle" unicode="&#x27;" horiz-adv-x="242" d="M199 741 L184 470 L58 470 L42 741 L199 741 Z " />
<glyph glyph-name="quotedblleft" unicode="&#x201c;" horiz-adv-x="555" d="M254 711 Q203 635 178 564 Q209 554 228 527 Q247 501 247 467 Q247 425 217 394 Q187 364 144 364 Q101 364 71 394 Q41 424 41 467 Q41 554 153 711 L254 711 Z M517 711 Q466 635 441 564 Q474 553 491 527 Q511 499 511 467 Q511 425 480 394 Q450 364 407 364 Q364 364 334 394 Q304 424 304 467 Q304 554 416 711 L517 711 Z " />
<glyph glyph-name="guillemotleft" unicode="&#xab;" horiz-adv-x="422" d="M176 334 L125 289 L176 242 L176 103 L47 230 L47 344 L176 474 L176 334 Z M375 334 L324 289 L375 242 L375 103 L246 230 L246 344 L375 474 L375 334 Z " />
<glyph glyph-name="guilsinglleft" unicode="&#x2039;" horiz-adv-x="222" d="M175 334 L124 289 L175 242 L175 103 L47 230 L47 344 L175 474 L175 334 Z " />
<glyph glyph-name="guilsinglright" unicode="&#x203a;" horiz-adv-x="222" d="M47 243 L98 288 L47 335 L47 474 L175 343 L175 230 L47 103 L47 243 Z " />
<glyph glyph-name="fi" unicode="&#xfb01;" horiz-adv-x="601" d="M66 555 L66 584 Q66 642 87.5 676 Q109 710 141.5 727.5 Q174 745 211 749.5 Q248 754 278 754 L303 754 L303 629 L284 629 Q278 629 269.5 627.5 Q261 626 252.5 620.5 Q244 615 238 605 Q232 595 232 577 L232 555 L541 555 L541 0 L375 0 L375 429 L232 429 L232 0 L66 0 L66 429 L4 429 L4 555 L66 555 Z M541 614 L375 614 L375 740 L541 740 L541 614 Z " />
<glyph glyph-name="fl" unicode="&#xfb02;" horiz-adv-x="601" d="M66 555 L66 584 Q66 642 87.5 676 Q109 710 141.5 727.5 Q174 745 211 749.5 Q248 754 278 754 L303 754 L303 629 L284 629 Q278 629 269.5 627.5 Q261 626 252.5 620.5 Q244 615 238 605 Q232 595 232 577 L232 555 L375 555 L375 739 L541 739 L541 0 L375 0 L375 429 L232 429 L232 0 L66 0 L66 429 L4 429 L4 555 L66 555 Z " />
<glyph glyph-name="endash" unicode="&#x2013;" horiz-adv-x="500" d="M465 207 L35 207 L35 370 L465 370 L465 207 Z " />
<glyph glyph-name="dagger" unicode="&#x2020;" horiz-adv-x="670" d="M418 563 L572 563 L572 423 L418 423 L418 -244 L253 -244 L253 423 L98 423 L98 563 L253 563 L253 740 L418 740 L418 563 Z " />
<glyph glyph-name="daggerdbl" unicode="&#x2021;" horiz-adv-x="670" d="M418 593 L572 593 L572 453 L418 453 L418 127 L572 127 L572 -13 L418 -13 L418 -244 L253 -244 L253 -13 L98 -13 L98 127 L253 127 L253 453 L98 453 L98 593 L253 593 L253 740 L418 740 L418 593 Z " />
<glyph glyph-name="periodcentered" unicode="&#xb7;" horiz-adv-x="314" d="M157 355 Q198 355 230 325 Q260 295 260 252 Q260 209 230 179 Q200 149 157 149 Q115 149 84 179 Q54 209 54 251 Q54 293 84 325 Q114 355 157 355 Z " />
<glyph glyph-name="paragraph" unicode="&#xb6;" horiz-adv-x="701" d="M205 355 L191 355 Q159 355 124.5 364.5 Q90 374 60.5 396 Q31 418 12 454.5 Q-7 491 -7 544 Q-7 591 6.5 624 Q20 657 42.5 679 Q65 701 92.5 713 Q120 725 148.5 731 Q177 737 203 738.5 Q229 740 247 740 L607 740 L607 622 L558 622 L558 -103 L430 -103 L430 622 L333 622 L333 -103 L205 -103 L205 355 Z " />
<glyph glyph-name="bullet" unicode="&#x2022;" horiz-adv-x="739" d="M371 532 Q402 532 429.5 519.5 Q457 507 477.5 486 Q498 465 510 437 Q522 409 522 377 Q522 345 510 316.5 Q498 288 477 267 Q456 246 428.5 234 Q401 222 370 222 Q338 222 310 234.5 Q282 247 261.5 268 Q241 289 229 317 Q217 345 217 377 Q217 408 228.5 436 Q240 464 260.5 485.5 Q281 507 309.5 519.5 Q338 532 371 532 Z " />
<glyph glyph-name="quotesinglbase" unicode="&#x201a;" horiz-adv-x="314" d="M122 -9 Q90 2 71 28 Q52 54 52 87 Q52 130 82 160 Q113 191 155 191 Q199 191 229 161 Q258 129 258 87 Q258 1 147 -156 L46 -156 Q96 -80 122 -9 Z " />
<glyph glyph-name="quotedblbase" unicode="&#x201e;" horiz-adv-x="555" d="M122 -9 Q90 2 71 28 Q52 54 52 87 Q52 130 82 160 Q113 191 155 191 Q199 191 229 161 Q258 129 258 87 Q258 1 147 -156 L46 -156 Q96 -80 122 -9 Z M367 -9 Q335 2 316 28 Q297 54 297 87 Q297 130 327 160 Q358 191 400 191 Q444 191 474 161 Q503 129 503 87 Q503 1 392 -156 L291 -156 Q341 -80 367 -9 Z " />
<glyph glyph-name="quotedblright" unicode="&#x201d;" horiz-adv-x="555" d="M106 521 Q74 532 55 558 Q36 584 36 617 Q36 659 66 691 Q96 721 139 721 Q183 721 213 691 Q242 659 242 617 Q242 531 131 374 L30 374 Q80 450 106 521 Z M368 521 Q337 532 318 558 Q299 584 299 617 Q299 659 329 691 Q360 721 403 721 Q446 721 476 691 Q506 659 506 617 Q506 533 394 374 L293 374 Q344 452 368 521 Z " />
<glyph glyph-name="guillemotright" unicode="&#xbb;" horiz-adv-x="422" d="M246 243 L298 288 L246 335 L246 474 L375 343 L375 230 L246 103 L246 243 Z M47 243 L98 288 L47 335 L47 474 L176 343 L176 230 L47 103 L47 243 Z " />
<glyph glyph-name="ellipsis" unicode="&#x2026;" horiz-adv-x="1000" d="M164 191 Q207 191 237 161 Q268 130 268 88 Q268 45 237 15 Q207 -15 165 -15 Q122 -15 91 15 Q61 45 61 87 Q61 131 91 161 Q121 191 164 191 Z M499 191 Q541 191 573 161 Q603 131 603 88 Q603 45 573 15 Q543 -15 500 -15 Q457 -15 427 15 Q397 45 397 87 Q397 129 427 161 Q457 191 499 191 Z M836 191 Q879 191 909 161 Q940 131 940 88 Q940 45 910 15 Q880 -15 837 -15 Q794 -15 764 15 Q733 45 733 87 Q733 130 764 161 Q794 191 836 191 Z " />
<glyph glyph-name="perthousand" unicode="&#x2030;" horiz-adv-x="1258" d="M36 574 Q36 611 50 644 Q64 677 88.5 702 Q113 727 146 741 Q179 755 216 755 Q253 755 286 741 Q319 727 343.5 702 Q368 677 382 644 Q396 611 396 574 Q396 536 382 503.5 Q368 471 343.5 446.5 Q319 422 286 408 Q253 394 216 394 Q179 394 146.5 408 Q114 422 89.5 446.5 Q65 471 50.5 503.5 Q36 536 36 574 Z M147 574 Q147 546 167 525.5 Q187 505 216 505 Q243 505 264 525 Q285 545 285 575 Q285 604 265 624 Q245 644 216 644 Q187 644 167 624 Q147 604 147 574 Z M461 166 Q461 203 475 236 Q489 269 514 294 Q539 319 571.5 333 Q604 347 642 347 Q679 347 712 333 Q745 319 769.5 294 Q794 269 808 236 Q822 203 822 166 Q822 128 807.5 95 Q793 62 768.5 37.5 Q744 13 711 -1 Q678 -15 642 -15 Q605 -15 572 -1 Q539 13 514.5 37.5 Q490 62 475.5 95 Q461 128 461 166 Z M572 166 Q572 137 592.5 116.5 Q613 96 642 96 Q670 96 690.5 116.5 Q711 137 711 166 Q711 196 690.5 216 Q670 236 642 236 Q612 236 592 215.5 Q572 195 572 166 Z M861 166 Q861 203 875 236 Q889 269 914 294 Q939 319 971.5 333 Q1004 347 1042 347 Q1079 347 1112 333 Q1145 319 1169.5 294 Q1194 269 1208 236 Q1222 203 1222 166 Q1222 128 1207.5 95 Q1193 62 1168.5 37.5 Q1144 13 1111 -1 Q1078 -15 1042 -15 Q1005 -15 972 -1 Q939 13 914.5 37.5 Q890 62 875.5 95 Q861 128 861 166 Z M972 166 Q972 137 992.5 116.5 Q1013 96 1042 96 Q1070 96 1090.5 116.5 Q1111 137 1111 166 Q1111 196 1090.5 216 Q1070 236 1042 236 Q1012 236 992 215.5 Q972 195 972 166 Z M522 740 L638 740 L331 0 L216 0 L522 740 Z " />
<glyph glyph-name="questiondown" unicode="&#xbf;" horiz-adv-x="592" d="M359 67 Q359 53 357.5 36 Q356 19 349.5 4.5 Q343 -10 329 -19.5 Q315 -29 290 -29 Q259 -29 246 -11.5 Q233 6 233 33 Q233 57 248 81.5 Q263 106 301 143 Q326 167 345 188 Q364 209 377.5 229.5 Q391 250 398 271.5 Q405 293 405 319 L231 319 Q230 308 227 297.5 Q224 287 216 275 Q208 263 193 247 Q178 231 154 209 Q134 190 113.5 170 Q93 150 77 126.5 Q61 103 51 74.5 Q41 46 41 12 Q41 -25 56.5 -63 Q72 -101 102.5 -131.5 Q133 -162 177.5 -181 Q222 -200 280 -200 Q337 -200 385.5 -181.5 Q434 -163 469 -129.5 Q504 -96 523.5 -50.5 Q543 -5 543 49 Q543 53 543 56.5 Q543 60 542 67 L359 67 Z M317 569 Q358 569 390 539 Q420 509 420 466 Q420 423 390 393 Q360 363 317 363 Q275 363 244 393 Q214 423 214 465 Q214 507 244 539 Q274 569 317 569 Z " />
<glyph glyph-name="grave" unicode="&#x60;" horiz-adv-x="555" d="M404 711 L358 614 L111 722 L162 839 L404 711 Z " />
<glyph glyph-name="acute" unicode="&#xb4;" horiz-adv-x="555" d="M444 730 L198 621 L151 719 L391 848 L444 730 Z " />
<glyph glyph-name="circumflex" unicode="&#x2c6;" horiz-adv-x="555" d="M232 640 L70 640 L226 806 L334 806 L484 640 L324 640 L278 698 L232 640 Z " />
<glyph glyph-name="tilde" unicode="&#x2dc;" horiz-adv-x="555" d="M480 688 Q454 671 426.5 661 Q399 651 367 651 Q354 651 331.5 655 Q309 659 285 664 Q261 669 239.5 673 Q218 677 207 677 Q185 677 168.5 671 Q152 665 135 658 L75 746 Q94 757 123.5 769 Q153 781 185 781 Q194 781 201 780.5 Q208 780 218.5 778 Q229 776 245.5 772.5 Q262 769 290 763 Q307 758 322 757 Q337 756 347 756 Q370 756 385.5 760.5 Q401 765 420 773 L480 688 Z " />
<glyph glyph-name="macron" unicode="&#xaf;" horiz-adv-x="555" d="M457 658 L98 658 L98 784 L457 784 L457 658 Z " />
<glyph glyph-name="breve" unicode="&#x2d8;" horiz-adv-x="555" d="M184 788 Q189 783 194 776.5 Q199 770 210 765 Q221 760 238 756.5 Q255 753 282 753 Q288 753 299 753.5 Q310 754 323 757.5 Q336 761 348.5 768 Q361 775 370 788 L483 788 Q481 753 465 726 Q449 699 423 681 Q367 644 277 644 Q233 644 196 653 Q159 662 132 680 Q105 698 89.5 725 Q74 752 71 788 L184 788 Z " />
<glyph glyph-name="dotaccent" unicode="&#x2d9;" horiz-adv-x="555" d="M198 795 L357 795 L357 644 L198 644 L198 795 Z " />
<glyph glyph-name="dieresis" unicode="&#xa8;" horiz-adv-x="555" d="M158 799 Q193 799 221 773 Q247 747 247 711 Q247 676 221 648 Q193 622 158 622 Q124 622 96 648 Q71 674 71 711 Q71 748 96 773 Q122 799 158 799 Z M392 799 Q427 799 455 773 Q481 747 481 711 Q481 675 455 649 Q428 622 392 622 Q358 622 330 648 Q304 676 304 711 Q304 747 330 773 Q356 799 392 799 Z " />
<glyph glyph-name="ring" unicode="&#x2da;" horiz-adv-x="555" d="M403 726 Q403 700 393 677 Q383 654 366 637 Q349 620 326 610 Q303 600 277 600 Q251 600 228 610 Q205 620 188 637 Q171 654 161 677 Q151 700 151 726 Q151 752 161 775 Q171 798 188 815 Q205 832 228 842 Q251 852 277 852 Q303 852 326 842 Q349 832 366 815 Q383 798 393 775 Q403 752 403 726 Z M233 726 Q233 708 246 695.5 Q259 683 277 683 Q295 683 308 695.5 Q321 708 321 727 Q321 745 308.5 758 Q296 771 277 771 Q257 771 245 757.5 Q233 744 233 726 Z " />
<glyph glyph-name="cedilla" unicode="&#xb8;" horiz-adv-x="555" d="M282 -53 Q291 -50 303 -50 Q317 -50 332 -55 Q347 -60 359.5 -71.5 Q372 -83 380 -100 Q388 -117 388 -141 Q388 -160 381 -178.5 Q374 -197 360.5 -212 Q347 -227 325.5 -236 Q304 -245 276 -245 Q270 -245 253.5 -243 Q237 -241 219.5 -231.5 Q202 -222 186.5 -203 Q171 -184 167 -151 L243 -151 Q247 -161 253 -170 Q259 -179 276 -179 Q293 -179 302.5 -168.5 Q312 -158 312 -141 Q312 -125 302 -116 Q292 -107 278 -107 Q268 -107 262 -111.5 Q256 -116 251 -122 L186 -87 L228 0 L311 0 L282 -53 Z " />
<glyph glyph-name="hungarumlaut" unicode="&#x2dd;" horiz-adv-x="555" d="M342 717 L170 583 L102 648 L252 803 L342 717 L342 717 Z M542 717 L370 583 L302 648 L452 803 L542 717 Z " />
<glyph glyph-name="ogonek" unicode="&#x2db;" horiz-adv-x="555" d="M380 -190 Q361 -196 341 -201 Q321 -206 294 -206 Q264 -206 241.5 -198 Q219 -190 204.5 -176.5 Q190 -163 182.5 -145.5 Q175 -128 175 -109 Q175 -96 178.5 -83.5 Q182 -71 191.5 -58 Q201 -45 217 -31 Q233 -17 258 0 L342 0 Q336 -3 326.5 -9 Q317 -15 307.5 -23.5 Q298 -32 291.5 -43.5 Q285 -55 285 -68 Q285 -87 299 -101.5 Q313 -116 333 -116 Q344 -116 354.5 -113 Q365 -110 380 -104 L380 -190 Z " />
<glyph glyph-name="caron" unicode="&#x2c7;" horiz-adv-x="555" d="M323 799 L484 799 L329 633 L221 633 L70 799 L231 799 L277 741 L323 799 Z " />
<glyph glyph-name="emdash" unicode="&#x2014;" horiz-adv-x="1000" d="M965 207 L35 207 L35 370 L965 370 L965 207 Z " />
<glyph glyph-name="AE" unicode="&#xc6;" horiz-adv-x="975" d="M299 124 L219 0 L-10 0 L504 740 L925 740 L925 574 L697 574 L697 459 L918 459 L918 293 L697 293 L697 166 L925 166 L925 0 L514 0 L514 124 L299 124 Z M514 270 L514 471 L512 471 L376 270 L514 270 Z " />
<glyph glyph-name="ordfeminine" unicode="&#xaa;" horiz-adv-x="385" d="M333 458 L234 458 L234 487 L232 487 Q220 462 199 455 Q178 448 159 448 Q129 448 103.5 460 Q78 472 59 492.5 Q40 513 29.5 541 Q19 569 19 601 Q19 638 31 666.5 Q43 695 62.5 714.5 Q82 734 108 744 Q134 754 161 754 Q212 754 233 715 L232 715 L234 715 L234 744 L333 744 L333 458 Z M118 601 Q118 593 121 582.5 Q124 572 131 563 Q138 554 149 548 Q160 542 176 542 Q192 542 203.5 548 Q215 554 222 563 Q229 572 232 582.5 Q235 593 235 601 Q235 623 220 641.5 Q205 660 176 660 Q146 660 132 640.5 Q118 621 118 601 Z " />
<glyph glyph-name="Lslash" unicode="&#x141;" horiz-adv-x="487" d="M7 158 L7 346 L72 393 L72 740 L261 740 L261 529 L370 607 L370 419 L261 341 L261 166 L480 166 L480 0 L72 0 L72 205 L7 158 Z " />
<glyph glyph-name="Oslash" unicode="&#xd8;" horiz-adv-x="851" d="M657 806 L775 720 L711 634 Q724 620 742 597 Q760 574 776.5 541 Q793 508 804.5 465 Q816 422 816 370 Q816 293 787 223.5 Q758 154 706 101 Q654 48 582 17 Q510 -14 424 -14 Q358 -14 318 -1 Q278 12 257 21 L194 -63 L76 24 L138 107 Q123 123 105.5 146.5 Q88 170 72 202.5 Q56 235 45.5 276.5 Q35 318 35 370 Q35 451 65 521 Q95 591 147.5 643 Q200 695 271.5 724.5 Q343 754 426 754 Q461 754 504.5 747 Q548 740 593 719 L657 806 Z M488 578 Q480 581 465 584.5 Q450 588 426 588 Q375 588 337 568 Q299 548 274 517 Q249 486 236.5 447.5 Q224 409 224 373 Q224 341 232 310.5 Q240 280 251 259 L488 578 Z M361 163 Q370 160 385.5 156 Q401 152 427 152 Q479 152 516.5 173 Q554 194 578.5 226 Q603 258 615 296 Q627 334 627 369 Q627 395 621 423.5 Q615 452 598 483 L361 163 Z " />
<glyph glyph-name="OE" unicode="&#x152;" horiz-adv-x="1085" d="M1035 574 L805 574 L805 459 L1027 459 L1027 293 L805 293 L805 166 L1035 166 L1035 0 L623 0 L623 49 Q595 29 567.5 16.5 Q540 4 513.5 -3 Q487 -10 463.5 -12 Q440 -14 419 -14 Q336 -14 265.5 17 Q195 48 144 100.5 Q93 153 64 222 Q35 291 35 368 Q35 441 61.5 510.5 Q88 580 138 634 Q188 688 260 721 Q332 754 424 754 Q466 754 498 747.5 Q530 741 553.5 731 Q577 721 594 710.5 Q611 700 623 691 L623 740 L1035 740 L1035 574 Z M224 368 Q224 336 235 298 Q246 260 270 227.5 Q294 195 331.5 173.5 Q369 152 422 152 Q471 152 508.5 171 Q546 190 571.5 221.5 Q597 253 609.5 292.5 Q622 332 622 373 Q622 417 608 456 Q594 495 568 524.5 Q542 554 505.5 571 Q469 588 423 588 Q372 588 335 568 Q298 548 273 516.5 Q248 485 236 446 Q224 407 224 368 Z " />
<glyph glyph-name="ordmasculine" unicode="&#xba;" horiz-adv-x="385" d="M37 601 Q37 628 46.5 655 Q56 682 75 704 Q94 726 123.5 740 Q153 754 192 754 Q231 754 260.5 740 Q290 726 309 704 Q328 682 337.5 655 Q347 628 347 601 Q347 574 337.5 547 Q328 520 309 498 Q290 476 260.5 462 Q231 448 192 448 Q153 448 123.5 462 Q94 476 75 498 Q56 520 46.5 547 Q37 574 37 601 Z M136 601 Q136 575 152.5 558.5 Q169 542 192 542 Q215 542 231.5 558.5 Q248 575 248 601 Q248 627 231.5 643.5 Q215 660 192 660 Q169 660 152.5 643.5 Q136 627 136 601 Z " />
<glyph glyph-name="ae" unicode="&#xe6;" horiz-adv-x="1091" d="M638 226 Q642 196 656 176 Q670 156 688.5 144 Q707 132 727.5 127 Q748 122 765 122 Q787 122 803.5 127 Q820 132 833 140 Q846 148 855.5 157 Q865 166 873 175 L1040 175 Q1011 109 975 70.5 Q939 32 903 12.5 Q867 -7 834 -12.5 Q801 -18 777 -18 Q740 -17 714 -7.5 Q688 2 670.5 13.5 Q653 25 643 36.5 Q633 48 629 55 L627 55 L627 0 L476 0 L476 55 L474 55 Q466 40 450.5 26.5 Q435 13 414 2.5 Q393 -8 368 -13.5 Q343 -19 316 -18 Q247 -18 194 10 Q141 38 105.5 81.5 Q70 125 52 177 Q34 229 34 277 Q34 339 55 393.5 Q76 448 114 488 Q152 528 204.5 551 Q257 574 320 574 Q344 574 368 568.5 Q392 563 413 553.5 Q434 544 450 530.5 Q466 517 474 501 L476 501 L476 555 L627 555 L627 502 L629 502 Q633 508 643 519.5 Q653 531 671 542.5 Q689 554 715.5 563 Q742 572 781 574 Q832 574 882 553.5 Q932 533 971.5 494 Q1011 455 1035 397.5 Q1059 340 1059 267 Q1059 250 1058 242.5 Q1057 235 1055 226 L638 226 Z M895 336 Q880 391 846 412 Q812 433 771 433 Q738 433 715 423 Q692 413 676.5 398 Q661 383 652.5 366 Q644 349 642 336 L895 336 Z M200 281 Q200 248 211 221.5 Q222 195 241 176.5 Q260 158 286 147.5 Q312 137 341 137 Q369 137 394 147.5 Q419 158 437 177 Q455 196 465.5 221 Q476 246 476 276 Q476 306 466.5 332.5 Q457 359 438.5 378 Q420 397 394 408 Q368 419 335 419 Q297 419 271 403.5 Q245 388 229.5 366 Q214 344 207 320.5 Q200 297 200 281 Z " />
<glyph glyph-name="dotlessi" unicode="&#x131;" horiz-adv-x="286" d="M226 0 L60 0 L60 555 L226 555 L226 0 Z " />
<glyph glyph-name="lslash" unicode="&#x142;" horiz-adv-x="342" d="M25 187 L25 359 L86 398 L86 740 L252 740 L252 505 L317 547 L317 375 L252 333 L252 0 L86 0 L86 226 L25 187 Z " />
<glyph glyph-name="oslash" unicode="&#xf8;" horiz-adv-x="666" d="M516 633 L623 556 L561 473 Q596 431 614 381.5 Q632 332 632 278 Q632 225 613.5 172.5 Q595 120 557.5 77.5 Q520 35 464 8.5 Q408 -18 334 -18 Q287 -18 257 -9.5 Q227 -1 213 5 L148 -83 L43 -3 L104 79 Q72 115 53 166.5 Q34 218 34 276 Q34 328 52.5 381 Q71 434 108 476.5 Q145 519 201.5 546 Q258 573 334 573 Q382 573 413 564 Q444 555 455 550 L516 633 Z M361 415 Q356 416 349.5 417 Q343 418 334 418 Q306 418 281.5 407 Q257 396 239 377.5 Q221 359 210.5 333.5 Q200 308 200 278 Q200 255 204.5 239.5 Q209 224 213 216 L361 415 Z M308 140 Q313 139 318.5 138 Q324 137 333 137 Q364 137 389 149 Q414 161 431 181 Q448 201 457 226 Q466 251 466 278 Q466 301 461.5 314.5 Q457 328 454 336 L308 140 Z " />
<glyph glyph-name="oe" unicode="&#x153;" horiz-adv-x="1076" d="M1026 173 Q1015 148 994 115 Q973 82 940 52 Q906 22 860 1.5 Q814 -19 752 -19 Q704 -19 668.5 -7.5 Q633 4 608 20 Q583 36 567.5 53 Q552 70 544 81 Q535 70 519.5 53 Q504 36 478.5 20 Q453 4 416 -7.5 Q379 -19 328 -19 Q268 -19 214.5 3.5 Q161 26 121 65.5 Q81 105 57.5 159 Q34 213 34 276 Q34 334 54.5 388 Q75 442 114 483 Q153 524 209 549 Q265 574 336 574 Q370 574 401.5 566 Q433 558 460 545 Q487 532 508.5 515 Q530 498 544 479 Q557 498 579 515 Q601 532 628 545 Q655 558 686.5 566 Q718 574 752 574 Q813 574 866 551 Q919 528 959 487.5 Q999 447 1022 391.5 Q1045 336 1045 272 Q1045 256 1043.5 246.5 Q1042 237 1040 226 L624 226 Q629 181 661.5 151.5 Q694 122 748 122 Q791 122 815 138 Q839 154 856 173 L1026 173 Z M879 337 Q868 383 833.5 408 Q799 433 754 433 Q709 433 673 407.5 Q637 382 629 337 L879 337 Z M200 277 Q200 248 210.5 222.5 Q221 197 239 178 Q257 159 281.5 147.5 Q306 136 335 136 Q368 136 392.5 149.5 Q417 163 433.5 183.5 Q450 204 458.5 229 Q467 254 467 278 Q467 305 457.5 330 Q448 355 430.5 375 Q413 395 388.5 407 Q364 419 334 419 Q310 419 286.5 409.5 Q263 400 243.5 382 Q224 364 212 337.5 Q200 311 200 277 Z " />
<glyph glyph-name="germandbls" unicode="&#xdf;" horiz-adv-x="694" d="M58 0 L58 427 Q58 471 60.5 505 Q63 539 70 566.5 Q77 594 89.5 617 Q102 640 122 662 Q166 711 225 735 Q284 759 341 759 Q393 759 436.5 741.5 Q480 724 511 694.5 Q542 665 559 627.5 Q576 590 576 550 Q576 519 568 497 Q560 475 548.5 460 Q537 445 525 435.5 Q513 426 505 421 Q535 413 563 396 Q591 379 612.5 354 Q634 329 647 297 Q660 265 660 228 Q660 183 642 138.5 Q624 94 590.5 59.5 Q557 25 509 3.5 Q461 -18 402 -18 Q365 -18 337 -10 Q309 -2 288 10 Q267 22 251.5 36.5 Q236 51 224 64 L224 0 L58 0 Z M224 209 L317 209 Q320 200 324.5 187.5 Q329 175 338.5 163.5 Q348 152 363.5 144.5 Q379 137 403 137 Q425 137 442 145 Q459 153 470.5 165.5 Q482 178 488 194 Q494 210 494 227 Q494 236 491 251.5 Q488 267 476.5 282 Q465 297 442.5 308.5 Q420 320 382 320 L292 320 L292 445 L326 445 Q365 445 387.5 466.5 Q410 488 410 521 Q410 559 385.5 581.5 Q361 604 322 604 Q285 604 265 587 Q245 570 236 548 Q227 526 225.5 504.5 Q224 483 224 474 L224 209 Z " />
<glyph glyph-name="divide" unicode="&#xf7;" horiz-adv-x="600" d="M559 185 L39 185 L39 326 L559 326 L559 185 Z M299 553 Q336 553 361 528 Q387 502 387 465 Q387 428 361 402 Q335 376 299 376 Q262 376 236 402 Q210 430 210 465 Q210 502 236 528 Q261 553 299 553 Z M299 135 Q335 135 361 109 Q387 83 387 47 Q387 10 361 -16 Q335 -42 299 -42 Q262 -42 236 -16 Q210 10 210 47 Q210 83 236 109 Q262 135 299 135 Z " />
<glyph glyph-name="threequarters" unicode="&#xbe;" horiz-adv-x="1000" d="M786 171 L786 292 L784 292 L702 171 L786 171 Z M575 77 L575 163 L789 444 L907 444 L907 171 L959 171 L959 77 L907 77 L907 0 L784 0 L784 77 L575 77 Z M748 740 L437 0 L301 0 L611 740 L748 740 Z M170 433 Q171 427 173.5 420.5 Q176 414 181.5 408.5 Q187 403 196 399 Q205 395 220 395 Q268 395 268 438 Q268 451 257 463.5 Q246 476 219 476 L164 476 L164 566 L188 566 Q194 566 204 566.5 Q214 567 223.5 571 Q233 575 240.5 583.5 Q248 592 248 608 Q248 619 241.5 630 Q235 641 216 641 Q203 641 196 637 Q189 633 185.5 628 Q182 623 181 616.5 Q180 610 180 606 L54 606 Q54 651 73 679 Q92 707 118 722.5 Q144 738 172 743.5 Q200 749 220 749 Q256 749 284 738.5 Q312 728 331.5 711 Q351 694 361.5 672 Q372 650 372 626 Q372 620 370.5 608.5 Q369 597 363.5 584.5 Q358 572 346.5 558.5 Q335 545 315 534 Q354 521 376 492 Q398 463 398 428 Q398 399 383.5 373 Q369 347 344.5 328 Q320 309 287.5 298 Q255 287 219 287 Q175 287 133.5 302.5 Q92 318 69 349 Q52 372 47.5 395 Q43 418 41 433 L170 433 Z " />
<glyph glyph-name="onequarter" unicode="&#xbc;" horiz-adv-x="900" d="M635 740 L324 0 L188 0 L498 740 L635 740 Z M249 296 L126 296 L126 634 L48 634 L48 740 L249 740 L249 296 Z M467 77 L467 163 L681 444 L799 444 L799 171 L851 171 L851 77 L799 77 L799 0 L676 0 L676 77 L467 77 Z M599 171 L678 171 L678 288 L676 288 L599 171 Z " />
<glyph glyph-name="onesuperior" unicode="&#xb9;" horiz-adv-x="407" d="M270 296 L147 296 L147 634 L69 634 L69 740 L270 740 L270 296 Z " />
<glyph glyph-name="multiply" unicode="&#xd7;" horiz-adv-x="600" d="M430 487 L544 373 L413 243 L542 113 L429 0 L300 129 L169 0 L56 113 L186 243 L56 373 L169 486 L299 356 L430 487 Z " />
<glyph glyph-name="registered" unicode="&#xae;" horiz-adv-x="800" d="M417 587 Q448 587 476 580.5 Q504 574 525.5 559.5 Q547 545 560 522 Q573 499 573 467 Q573 454 570 440 Q567 426 559.5 412.5 Q552 399 538.5 386.5 Q525 374 504 364 Q516 359 526 352 Q536 345 544.5 334 Q553 323 558 306 Q563 289 565 265 Q567 237 568 220.5 Q569 204 570.5 193.5 Q572 183 573.5 176 Q575 169 578 161 L475 161 Q472 167 469.5 181.5 Q467 196 465.5 212.5 Q464 229 463 243.5 Q462 258 461 263 Q460 272 457.5 283 Q455 294 447 303 Q439 312 424.5 318.5 Q410 325 385 325 L343 325 L343 161 L237 161 L237 587 L417 587 Z M343 514 L343 394 L394 394 Q402 394 414.5 395 Q427 396 438.5 402 Q450 408 458.5 421.5 Q467 435 467 459 Q467 479 459.5 490 Q452 501 441.5 506.5 Q431 512 419.5 513 Q408 514 400 514 L343 514 Z M403 754 Q482 754 551.5 723 Q621 692 672.5 639.5 Q724 587 753.5 517.5 Q783 448 783 370 Q783 290 753 220.5 Q723 151 671 98.5 Q619 46 549.5 16 Q480 -14 401 -14 Q322 -14 252 16.5 Q182 47 130 99 Q78 151 48 221 Q18 291 18 370 Q18 447 47.5 517 Q77 587 128.5 639.5 Q180 692 250.5 723 Q321 754 403 754 Z M402 677 Q338 677 283 652.5 Q228 628 187.5 586.5 Q147 545 124 489 Q101 433 101 370 Q101 306 125 250 Q149 194 189.5 152.5 Q230 111 284.5 87 Q339 63 401 63 Q462 63 516.5 87 Q571 111 612 152 Q653 193 676.5 249 Q700 305 700 370 Q700 432 677 487.5 Q654 543 614 585 Q574 627 519.5 652 Q465 677 402 677 Z " />
<glyph glyph-name="Thorn" unicode="&#xde;" horiz-adv-x="636" d="M67 740 L248 740 L248 643 L309 644 Q360 644 396.5 640 Q433 636 459.5 629 Q486 622 504 612 Q522 602 537 590 Q581 554 602.5 502.5 Q624 451 624 394 Q624 366 618.5 337.5 Q613 309 602.5 283.5 Q592 258 578 236.5 Q564 215 546 200 Q527 184 507 172 Q487 160 462 152 Q437 144 405 140 Q373 136 330 136 L248 136 L248 0 L67 0 L67 740 Z M248 302 L325 302 Q338 302 358.5 303.5 Q379 305 397.5 313 Q416 321 429.5 339.5 Q443 358 443 391 Q443 424 429 441.5 Q415 459 395.5 467 Q376 475 354.5 476.5 Q333 478 318 478 L248 478 L248 302 Z " />
<glyph glyph-name="brokenbar" unicode="&#xa6;" horiz-adv-x="555" d="M369 740 L369 404 L186 404 L186 740 L369 740 Z M369 236 L369 -100 L186 -100 L186 236 L369 236 Z " />
<glyph glyph-name="Eth" unicode="&#xd0;" horiz-adv-x="742" d="M0 462 L67 462 L67 740 L316 740 Q347 740 387.5 738 Q428 736 471.5 723 Q515 710 558.5 682 Q602 654 639 602 Q677 549 692 491 Q707 433 707 372 Q707 296 685 228.5 Q663 161 618.5 110 Q574 59 506 29.5 Q438 0 346 0 L67 0 L67 296 L0 296 L0 462 Z M364 296 L256 296 L256 166 L337 166 Q390 166 425 183 Q460 200 480.5 228 Q501 256 509.5 293 Q518 330 518 369 Q518 401 510 437.5 Q502 474 482 506 Q474 518 462 530.5 Q450 543 433 552.5 Q416 562 392.5 568 Q369 574 338 574 L256 574 L256 462 L364 462 L364 296 Z " />
<glyph glyph-name="onehalf" unicode="&#xbd;" horiz-adv-x="920" d="M635 740 L324 0 L188 0 L498 740 L635 740 Z M249 296 L126 296 L126 634 L48 634 L48 740 L249 740 L249 296 Z M872 106 L872 0 L531 0 L531 97 Q567 120 602.5 144 Q638 168 666.5 193.5 Q695 219 713 246.5 Q731 274 731 304 Q731 319 724.5 332.5 Q718 346 696 346 Q680 346 670.5 338 Q661 330 656.5 319 Q652 308 650.5 296.5 Q649 285 649 278 L526 278 Q527 301 531 328 Q535 355 555 384 Q570 406 590.5 419.5 Q611 433 631.5 440.5 Q652 448 671.5 450.5 Q691 453 705 453 Q745 453 776 441.5 Q807 430 828 411.5 Q849 393 859.5 369.5 Q870 346 870 322 Q870 301 863.5 278 Q857 255 840 229 Q823 203 793.5 173 Q764 143 719 108 L719 106 L872 106 Z " />
<glyph glyph-name="minus" unicode="&#x2212;" horiz-adv-x="600" d="M48 173 L48 333 L552 333 L552 173 L48 173 Z " />
<glyph glyph-name="ccedilla" unicode="&#xe7;" horiz-adv-x="652" d="M233 -87 L269 -12 Q218 -2 174.5 25 Q131 52 99.5 90 Q68 128 50.5 176.5 Q33 225 33 279 Q33 340 55.5 394 Q78 448 117.5 488 Q157 528 210.5 551 Q264 574 326 574 Q381 574 430 556.5 Q479 539 517.5 508.5 Q556 478 582.5 435 Q609 392 620 341 L452 341 Q445 354 435 367 Q425 380 411 390.5 Q397 401 377.5 408 Q358 415 332 415 Q302 416 278 406 Q254 396 236.5 377 Q219 358 209.5 332.5 Q200 307 200 278 Q200 248 209.5 222 Q219 196 236.5 177 Q254 158 278 147.5 Q302 137 332 137 Q358 137 377.5 144 Q397 151 411 161.5 Q425 172 435 185 Q445 198 452 211 L621 211 Q610 166 586 125.5 Q562 85 526.5 54.5 Q491 24 446 5.5 Q401 -13 349 -16 L329 -53 Q338 -50 350 -50 Q363 -50 377.5 -55 Q392 -60 405 -71.5 Q418 -83 426.5 -100 Q435 -117 435 -141 Q435 -160 428 -178.5 Q421 -197 407.5 -212 Q394 -227 372.5 -236 Q351 -245 323 -245 Q317 -245 300.5 -243 Q284 -241 266.5 -231.5 Q249 -222 233.5 -203 Q218 -184 214 -151 L290 -151 Q294 -161 300 -170 Q306 -179 323 -179 Q340 -179 349.5 -168.5 Q359 -158 359 -141 Q359 -125 349 -116 Q339 -107 325 -107 Q315 -107 309 -111.5 Q303 -116 298 -122 L233 -87 Z " />
<glyph glyph-name="eth" unicode="&#xf0;" horiz-adv-x="666" d="M338 420 Q301 420 274.5 406 Q248 392 231.5 370.5 Q215 349 207.5 324.5 Q200 300 200 279 Q200 255 208 230 Q216 205 232.5 184.5 Q249 164 274.5 151 Q300 138 335 138 Q371 138 395.5 152 Q420 166 436 187 Q452 208 459 232.5 Q466 257 466 279 Q466 302 458.5 327 Q451 352 435 372.5 Q419 393 395 406.5 Q371 420 338 420 Z M472 655 Q505 628 533.5 594 Q562 560 584 518 Q607 475 619.5 417.5 Q632 360 632 302 Q632 236 610.5 178 Q589 120 550 76.5 Q511 33 455.5 8 Q400 -17 333 -17 Q271 -17 216.5 5 Q162 27 121.5 66.5 Q81 106 57.5 159.5 Q34 213 34 276 Q34 346 57.5 399.5 Q81 453 119 489 Q157 525 204.5 543.5 Q252 562 300 561 Q337 560 365 549.5 Q393 539 417 514 L419 516 Q406 539 381 562.5 Q356 586 322 609 L172 564 L79 624 L219 667 Q194 678 169.5 687.5 Q145 697 120 703 L280 756 Q304 750 329.5 740.5 Q355 731 381 717 L510 756 L593 692 L472 655 Z " />
<glyph glyph-name="plusminus" unicode="&#xb1;" horiz-adv-x="600" d="M220 556 L380 556 L380 420 L552 420 L552 260 L380 260 L380 130 L220 130 L220 260 L48 260 L48 420 L220 420 L220 556 Z M48 78 L552 78 L552 -82 L48 -82 L48 78 Z " />
<glyph glyph-name="Ccedilla" unicode="&#xc7;" horiz-adv-x="832" d="M326 -87 L364 -9 Q290 2 229.5 37 Q169 72 126.5 123.5 Q84 175 60.5 239 Q37 303 37 371 Q37 442 63.5 510.5 Q90 579 140 633 Q190 687 262 720.5 Q334 754 425 754 Q512 754 579 724 Q646 694 692.5 650 Q739 606 766 554 Q793 502 801 459 L603 459 Q595 480 580.5 502.5 Q566 525 544 544 Q522 563 492 575.5 Q462 588 424 588 Q376 588 339.5 569 Q303 550 277.5 519.5 Q252 489 239 450 Q226 411 226 372 Q226 330 240 290.5 Q254 251 279.5 220 Q305 189 342 170.5 Q379 152 425 152 Q469 152 501 168 Q533 184 554 205 Q575 226 586.5 246.5 Q598 267 603 277 L801 277 Q785 214 751.5 161.5 Q718 109 671 71 Q624 33 566 11.5 Q508 -10 444 -13 L422 -53 Q431 -50 443 -50 Q456 -50 470.5 -55 Q485 -60 498 -71.5 Q511 -83 519.5 -100 Q528 -117 528 -141 Q528 -160 521 -178.5 Q514 -197 500.5 -212 Q487 -227 465.5 -236 Q444 -245 416 -245 Q410 -245 393.5 -243 Q377 -241 359.5 -231.5 Q342 -222 326.5 -203 Q311 -184 307 -151 L383 -151 Q387 -161 393 -170 Q399 -179 416 -179 Q433 -179 442.5 -168.5 Q452 -158 452 -141 Q452 -125 442 -116 Q432 -107 418 -107 Q408 -107 402 -111.5 Q396 -116 391 -122 L326 -87 Z " />
<glyph glyph-name="thorn" unicode="&#xfe;" horiz-adv-x="695" d="M59 740 L225 740 L225 506 Q235 516 248.5 527.5 Q262 539 281.5 549 Q301 559 327.5 566 Q354 573 390 573 Q464 573 516 544 Q568 515 600.5 471 Q633 427 648 373.5 Q663 320 663 272 Q663 212 643 159 Q623 106 587 66.5 Q551 27 501 4 Q451 -19 392 -19 Q353 -19 325 -11 Q297 -3 277 8 Q257 19 244.5 30.5 Q232 42 225 50 L225 -185 L59 -185 L59 740 Z M357 136 Q390 136 416 148 Q442 160 460 180 Q478 200 487.5 225.5 Q497 251 497 277 Q497 302 488 327 Q479 352 461.5 372 Q444 392 417.5 405 Q391 418 357 418 Q322 418 296 405 Q270 392 252.5 372 Q235 352 226 327 Q217 302 217 277 Q217 251 226.5 225.5 Q236 200 254 180 Q272 160 298 148 Q324 136 357 136 Z " />
<glyph glyph-name="copyright" unicode="&#xa9;" horiz-adv-x="800" d="M490 436 Q484 458 474 471.5 Q464 485 452.5 492.5 Q441 500 428.5 502 Q416 504 406 504 Q374 504 353.5 491.5 Q333 479 321 459.5 Q309 440 304 416.5 Q299 393 299 372 Q299 346 305 322.5 Q311 299 324 281 Q337 263 357.5 252.5 Q378 242 406 242 Q410 242 422 243.5 Q434 245 447.5 253 Q461 261 474 278.5 Q487 296 493 329 L599 329 Q592 245 539 197.5 Q486 150 402 150 Q353 150 314 167 Q275 184 248 213.5 Q221 243 206.5 284 Q192 325 192 373 Q192 416 205.5 456.5 Q219 497 246 528 Q273 559 313 577.5 Q353 596 405 596 Q450 596 484.5 581.5 Q519 567 543 544.5 Q567 522 580 493 Q593 464 595 436 L490 436 Z M403 754 Q482 754 551.5 723 Q621 692 672.5 639.5 Q724 587 753.5 517.5 Q783 448 783 370 Q783 290 753 220.5 Q723 151 671 98.5 Q619 46 549.5 16 Q480 -14 401 -14 Q322 -14 252 16.5 Q182 47 130 99 Q78 151 48 221 Q18 291 18 370 Q18 448 47.5 517.5 Q77 587 128.5 639.5 Q180 692 250.5 723 Q321 754 403 754 Z M402 677 Q338 677 283 652.5 Q228 628 187.5 586 Q147 544 124 488.5 Q101 433 101 370 Q101 306 125 250 Q149 194 189.5 152.5 Q230 111 284.5 87 Q339 63 401 63 Q462 63 516.5 87 Q571 111 612 152 Q653 193 676.5 249 Q700 305 700 370 Q700 432 677 488 Q654 544 614 586 Q574 628 519.5 652.5 Q465 677 402 677 Z " />
<glyph glyph-name="logicalnot" unicode="&#xac;" horiz-adv-x="600" d="M397 285 L33 285 L33 445 L557 445 L557 108 L397 108 L397 285 Z " />
<glyph glyph-name="twosuperior" unicode="&#xb2;" horiz-adv-x="407" d="M376 402 L376 296 L35 296 L35 393 Q71 416 106.5 440 Q142 464 170.5 489.5 Q199 515 217 542.5 Q235 570 235 600 Q235 615 228.5 628.5 Q222 642 200 642 Q184 642 174.5 634 Q165 626 160.5 615 Q156 604 154.5 592.5 Q153 581 153 574 L30 574 Q31 597 35 624 Q39 651 59 680 Q74 702 94.5 715.5 Q115 729 135.5 736.5 Q156 744 175.5 746.5 Q195 749 209 749 Q249 749 280 737.5 Q311 726 332 707.5 Q353 689 363.5 665.5 Q374 642 374 618 Q374 597 367.5 574 Q361 551 344 525 Q327 499 297.5 469 Q268 439 223 404 L223 402 L376 402 Z " />
<glyph glyph-name="threesuperior" unicode="&#xb3;" horiz-adv-x="407" d="M151 433 Q152 427 154.5 420.5 Q157 414 162.5 408.5 Q168 403 177 399 Q186 395 201 395 Q249 395 249 438 Q249 451 238 463.5 Q227 476 200 476 L145 476 L145 566 L169 566 Q175 566 185 566.5 Q195 567 204.5 571 Q214 575 221.5 583.5 Q229 592 229 608 Q229 619 222.5 630 Q216 641 197 641 Q184 641 177 637 Q170 633 166.5 628 Q163 623 162 616.5 Q161 610 161 606 L35 606 Q35 651 54 679 Q73 707 99 722.5 Q125 738 153 743.5 Q181 749 201 749 Q237 749 265 738.5 Q293 728 312.5 711 Q332 694 342.5 672 Q353 650 353 626 Q353 620 351.5 608.5 Q350 597 344.5 584.5 Q339 572 327.5 558.5 Q316 545 296 534 Q335 521 357 492 Q379 463 379 428 Q379 399 364.5 373 Q350 347 325.5 328 Q301 309 268.5 298 Q236 287 200 287 Q156 287 114.5 302.5 Q73 318 50 349 Q33 372 28.5 395 Q24 418 22 433 L151 433 Z " />
<glyph glyph-name="trademark" unicode="&#x2122;" horiz-adv-x="990" d="M112 634 L21 634 L21 740 L328 740 L328 634 L238 634 L238 296 L112 296 L112 634 Z M386 740 L545 740 L632 463 L634 463 L720 740 L879 740 L879 296 L762 296 L764 597 L762 597 L675 296 L591 296 L501 597 L499 595 L503 296 L386 296 L386 740 Z " />
<glyph glyph-name="degree" unicode="&#xb0;" horiz-adv-x="400" d="M200 508 Q224 508 241.5 526 Q259 544 259 569 Q259 593 241.5 611.5 Q224 630 200 630 Q176 630 158.5 611.5 Q141 593 141 569 Q141 544 158.5 526 Q176 508 200 508 Z M200 426 Q170 426 144 437 Q118 448 98.5 467.5 Q79 487 68 513 Q57 539 57 569 Q57 599 68 625 Q79 651 98.5 670.5 Q118 690 144 701 Q170 712 200 712 Q230 712 256 701 Q282 690 301.5 670.5 Q321 651 332 625 Q343 599 343 569 Q343 539 332 513 Q321 487 301.5 467.5 Q282 448 256 437 Q230 426 200 426 Z " />
<glyph glyph-name="&amp;#xb5;" unicode="&#xb5;" horiz-adv-x="634" d="M52 555 L218 555 L218 281 Q218 254 222.5 228.5 Q227 203 238 182.5 Q249 162 268 149.5 Q287 137 316 137 Q345 137 364 149.5 Q383 162 394.5 182.5 Q406 203 410.5 228.5 Q415 254 415 281 L415 555 L581 555 L581 0 L423 0 L423 69 L422 69 L420 69 Q417 61 410 47.5 Q403 34 390.5 21 Q378 8 360 -1 Q342 -10 318 -10 Q276 -10 252.5 8.5 Q229 27 220 44 L218 44 L218 -190 L52 -190 L52 555 Z " />
<glyph glyph-name="&amp;#x3bc;" unicode="&#x3bc;" horiz-adv-x="634" d="M52 555 L218 555 L218 281 Q218 254 222.5 228.5 Q227 203 238 182.5 Q249 162 268 149.5 Q287 137 316 137 Q345 137 364 149.5 Q383 162 394.5 182.5 Q406 203 410.5 228.5 Q415 254 415 281 L415 555 L581 555 L581 0 L423 0 L423 69 L422 69 L420 69 Q417 61 410 47.5 Q403 34 390.5 21 Q378 8 360 -1 Q342 -10 318 -10 Q276 -10 252.5 8.5 Q229 27 220 44 L218 44 L218 -190 L52 -190 L52 555 Z " />
<glyph glyph-name="Aacute" unicode="&#xc1;" horiz-adv-x="758" d="M251 107 L212 0 L9 0 L306 740 L455 740 L749 0 L544 0 L508 107 L251 107 Z M303 257 L458 257 L382 510 L381 510 L379 510 L303 257 Z M546 875 L300 766 L253 864 L493 993 L546 875 Z " />
<glyph glyph-name="Acircumflex" unicode="&#xc2;" horiz-adv-x="758" d="M251 107 L212 0 L9 0 L306 740 L455 740 L749 0 L544 0 L508 107 L251 107 Z M303 257 L458 257 L382 510 L381 510 L379 510 L303 257 Z M334 785 L172 785 L328 951 L436 951 L586 785 L426 785 L380 843 L334 785 Z " />
<glyph glyph-name="Adieresis" unicode="&#xc4;" horiz-adv-x="758" d="M251 107 L212 0 L9 0 L306 740 L455 740 L749 0 L544 0 L508 107 L251 107 Z M303 257 L458 257 L382 510 L381 510 L379 510 L303 257 Z M260 944 Q295 944 323 918 Q349 892 349 856 Q349 821 323 793 Q295 767 260 767 Q226 767 198 793 Q173 819 173 856 Q173 893 198 918 Q224 944 260 944 Z M494 944 Q529 944 557 918 Q583 892 583 856 Q583 820 557 794 Q530 767 494 767 Q460 767 432 793 Q406 821 406 856 Q406 892 432 918 Q458 944 494 944 Z " />
<glyph glyph-name="Agrave" unicode="&#xc0;" horiz-adv-x="758" d="M251 107 L212 0 L9 0 L306 740 L455 740 L749 0 L544 0 L508 107 L251 107 Z M303 257 L458 257 L382 510 L381 510 L379 510 L303 257 Z M506 856 L460 759 L213 867 L264 984 L506 856 Z " />
<glyph glyph-name="Aring" unicode="&#xc5;" horiz-adv-x="758" d="M251 107 L212 0 L9 0 L306 740 L455 740 L749 0 L544 0 L508 107 L251 107 Z M303 257 L458 257 L382 510 L381 510 L379 510 L303 257 Z M505 891 Q505 865 495 842 Q485 819 468 802 Q451 785 428 775 Q405 765 379 765 Q353 765 330 775 Q307 785 290 802 Q273 819 263 842 Q253 865 253 891 Q253 917 263 940 Q273 963 290 980 Q307 997 330 1007 Q353 1017 379 1017 Q405 1017 428 1007 Q451 997 468 980 Q485 963 495 940 Q505 917 505 891 Z M335 891 Q335 873 348 860.5 Q361 848 379 848 Q397 848 410 860.5 Q423 873 423 892 Q423 910 410.5 923 Q398 936 379 936 Q359 936 347 922.5 Q335 909 335 891 Z " />
<glyph glyph-name="Atilde" unicode="&#xc3;" horiz-adv-x="758" d="M251 107 L212 0 L9 0 L306 740 L455 740 L749 0 L544 0 L508 107 L251 107 Z M303 257 L458 257 L382 510 L381 510 L379 510 L303 257 Z M582 853 Q556 836 528.5 826 Q501 816 469 816 Q456 816 433.5 820 Q411 824 387 829 Q363 834 341.5 838 Q320 842 309 842 Q287 842 270.5 836 Q254 830 237 823 L177 911 Q196 922 225.5 934 Q255 946 287 946 Q296 946 303 945.5 Q310 945 320.5 943 Q331 941 347.5 937.5 Q364 934 392 928 Q409 923 424 922 Q439 921 449 921 Q472 921 487.5 925.5 Q503 930 522 938 L582 853 Z " />
<glyph glyph-name="Eacute" unicode="&#xc9;" horiz-adv-x="528" d="M67 740 L478 740 L478 574 L248 574 L248 459 L471 459 L471 293 L248 293 L248 166 L478 166 L478 0 L67 0 L67 740 Z M432 895 L186 786 L139 884 L379 1013 L432 895 Z " />
<glyph glyph-name="Ecircumflex" unicode="&#xca;" horiz-adv-x="528" d="M67 740 L478 740 L478 574 L248 574 L248 459 L471 459 L471 293 L248 293 L248 166 L478 166 L478 0 L67 0 L67 740 Z M220 805 L58 805 L214 971 L322 971 L472 805 L312 805 L266 863 L220 805 Z " />
<glyph glyph-name="Edieresis" unicode="&#xcb;" horiz-adv-x="528" d="M149 971 Q184 971 212 945 Q238 919 238 883 Q238 848 212 820 Q184 794 149 794 Q115 794 87 820 Q62 846 62 883 Q62 920 87 945 Q113 971 149 971 Z M383 971 Q418 971 446 945 Q472 919 472 883 Q472 847 446 821 Q419 794 383 794 Q349 794 321 820 Q295 848 295 883 Q295 919 321 945 Q347 971 383 971 Z M67 0 L478 0 L478 166 L248 166 L248 293 L471 293 L471 459 L248 459 L248 574 L478 574 L478 740 L67 740 L67 0 Z " />
<glyph glyph-name="Egrave" unicode="&#xc8;" horiz-adv-x="528" d="M67 740 L478 740 L478 574 L248 574 L248 459 L471 459 L471 293 L248 293 L248 166 L478 166 L478 0 L67 0 L67 740 Z M392 876 L346 779 L99 887 L150 1004 L392 876 Z " />
<glyph glyph-name="Iacute" unicode="&#xcd;" horiz-adv-x="323" d="M67 740 L256 740 L256 0 L67 0 L67 740 Z M354 895 L108 786 L61 884 L301 1013 L354 895 Z " />
<glyph glyph-name="Icircumflex" unicode="&#xce;" horiz-adv-x="323" d="M67 740 L256 740 L256 0 L67 0 L67 740 Z M117 805 L-45 805 L111 971 L219 971 L369 805 L209 805 L163 863 L117 805 Z " />
<glyph glyph-name="Idieresis" unicode="&#xcf;" horiz-adv-x="323" d="M45 971 Q80 971 108 945 Q134 919 134 883 Q134 848 108 820 Q80 794 45 794 Q11 794 -17 820 Q-42 846 -42 883 Q-42 920 -17 945 Q9 971 45 971 Z M279 971 Q314 971 342 945 Q368 919 368 883 Q368 847 342 821 Q315 794 279 794 Q245 794 217 820 Q191 848 191 883 Q191 919 217 945 Q243 971 279 971 Z M67 0 L256 0 L256 740 L67 740 L67 0 Z " />
<glyph glyph-name="Igrave" unicode="&#xcc;" horiz-adv-x="323" d="M67 740 L256 740 L256 0 L67 0 L67 740 Z M264 876 L218 779 L-29 887 L22 1004 L264 876 Z " />
<glyph glyph-name="Ntilde" unicode="&#xd1;" horiz-adv-x="759" d="M67 740 L230 740 L516 275 L518 277 L510 740 L691 740 L691 0 L527 0 L245 450 L243 449 L248 0 L67 0 L67 740 Z M582 853 Q556 836 528.5 826 Q501 816 469 816 Q456 816 433.5 820 Q411 824 387 829 Q363 834 341.5 838 Q320 842 309 842 Q287 842 270.5 836 Q254 830 237 823 L177 911 Q196 922 225.5 934 Q255 946 287 946 Q296 946 303 945.5 Q310 945 320.5 943 Q331 941 347.5 937.5 Q364 934 392 928 Q409 923 424 922 Q439 921 449 921 Q472 921 487.5 925.5 Q503 930 522 938 L582 853 Z " />
<glyph glyph-name="Oacute" unicode="&#xd3;" horiz-adv-x="851" d="M64 519 Q79 555 108 596 Q137 637 181.5 672.5 Q226 708 286.5 731 Q347 754 425 754 Q510 754 582 723 Q654 692 706 639.5 Q758 587 787 517 Q816 447 816 370 Q816 293 787 223 Q758 153 706 100.5 Q654 48 582 17 Q510 -14 424 -14 Q337 -14 265 18 Q193 50 142 102.5 Q91 155 63 222.5 Q35 290 35 361 Q35 398 41 438 Q47 478 64 519 Z M224 372 Q224 329 238 289.5 Q252 250 278.5 219.5 Q305 189 342.5 170.5 Q380 152 428 152 Q478 152 515.5 172.5 Q553 193 577.5 225 Q602 257 614.5 295 Q627 333 627 369 Q627 405 614.5 443.5 Q602 482 577.5 514.5 Q553 547 515 567.5 Q477 588 426 588 Q377 588 339 569 Q301 550 275.5 519 Q250 488 237 449.5 Q224 411 224 372 Z M592 895 L346 786 L299 884 L539 1013 L592 895 Z " />
<glyph glyph-name="Ocircumflex" unicode="&#xd4;" horiz-adv-x="851" d="M64 519 Q79 555 108 596 Q137 637 181.5 672.5 Q226 708 286.5 731 Q347 754 425 754 Q510 754 582 723 Q654 692 706 639.5 Q758 587 787 517 Q816 447 816 370 Q816 293 787 223 Q758 153 706 100.5 Q654 48 582 17 Q510 -14 424 -14 Q337 -14 265 18 Q193 50 142 102.5 Q91 155 63 222.5 Q35 290 35 361 Q35 398 41 438 Q47 478 64 519 Z M224 372 Q224 329 238 289.5 Q252 250 278.5 219.5 Q305 189 342.5 170.5 Q380 152 428 152 Q478 152 515.5 172.5 Q553 193 577.5 225 Q602 257 614.5 295 Q627 333 627 369 Q627 405 614.5 443.5 Q602 482 577.5 514.5 Q553 547 515 567.5 Q477 588 426 588 Q377 588 339 569 Q301 550 275.5 519 Q250 488 237 449.5 Q224 411 224 372 Z M380 805 L218 805 L374 971 L482 971 L632 805 L472 805 L426 863 L380 805 Z " />
<glyph glyph-name="Odieresis" unicode="&#xd6;" horiz-adv-x="851" d="M64 519 Q79 555 108 596 Q137 637 181.5 672.5 Q226 708 286.5 731 Q347 754 425 754 Q510 754 582 723 Q654 692 706 639.5 Q758 587 787 517 Q816 447 816 370 Q816 293 787 223 Q758 153 706 100.5 Q654 48 582 17 Q510 -14 424 -14 Q337 -14 265 18 Q193 50 142 102.5 Q91 155 63 222.5 Q35 290 35 361 Q35 398 41 438 Q47 478 64 519 Z M224 372 Q224 329 238 289.5 Q252 250 278.5 219.5 Q305 189 342.5 170.5 Q380 152 428 152 Q478 152 515.5 172.5 Q553 193 577.5 225 Q602 257 614.5 295 Q627 333 627 369 Q627 405 614.5 443.5 Q602 482 577.5 514.5 Q553 547 515 567.5 Q477 588 426 588 Q377 588 339 569 Q301 550 275.5 519 Q250 488 237 449.5 Q224 411 224 372 Z M306 964 Q341 964 369 938 Q395 912 395 876 Q395 841 369 813 Q341 787 306 787 Q272 787 244 813 Q219 839 219 876 Q219 913 244 938 Q270 964 306 964 Z M540 964 Q575 964 603 938 Q629 912 629 876 Q629 840 603 814 Q576 787 540 787 Q506 787 478 813 Q452 841 452 876 Q452 912 478 938 Q504 964 540 964 Z " />
<glyph glyph-name="Ograve" unicode="&#xd2;" horiz-adv-x="851" d="M64 519 Q79 555 108 596 Q137 637 181.5 672.5 Q226 708 286.5 731 Q347 754 425 754 Q510 754 582 723 Q654 692 706 639.5 Q758 587 787 517 Q816 447 816 370 Q816 293 787 223 Q758 153 706 100.5 Q654 48 582 17 Q510 -14 424 -14 Q337 -14 265 18 Q193 50 142 102.5 Q91 155 63 222.5 Q35 290 35 361 Q35 398 41 438 Q47 478 64 519 Z M224 372 Q224 329 238 289.5 Q252 250 278.5 219.5 Q305 189 342.5 170.5 Q380 152 428 152 Q478 152 515.5 172.5 Q553 193 577.5 225 Q602 257 614.5 295 Q627 333 627 369 Q627 405 614.5 443.5 Q602 482 577.5 514.5 Q553 547 515 567.5 Q477 588 426 588 Q377 588 339 569 Q301 550 275.5 519 Q250 488 237 449.5 Q224 411 224 372 Z M552 876 L506 779 L259 887 L310 1004 L552 876 Z " />
<glyph glyph-name="Otilde" unicode="&#xd5;" horiz-adv-x="851" d="M64 519 Q79 555 108 596 Q137 637 181.5 672.5 Q226 708 286.5 731 Q347 754 425 754 Q510 754 582 723 Q654 692 706 639.5 Q758 587 787 517 Q816 447 816 370 Q816 293 787 223 Q758 153 706 100.5 Q654 48 582 17 Q510 -14 424 -14 Q337 -14 265 18 Q193 50 142 102.5 Q91 155 63 222.5 Q35 290 35 361 Q35 398 41 438 Q47 478 64 519 Z M224 372 Q224 329 238 289.5 Q252 250 278.5 219.5 Q305 189 342.5 170.5 Q380 152 428 152 Q478 152 515.5 172.5 Q553 193 577.5 225 Q602 257 614.5 295 Q627 333 627 369 Q627 405 614.5 443.5 Q602 482 577.5 514.5 Q553 547 515 567.5 Q477 588 426 588 Q377 588 339 569 Q301 550 275.5 519 Q250 488 237 449.5 Q224 411 224 372 Z M628 853 Q602 836 574.5 826 Q547 816 515 816 Q502 816 479.5 820 Q457 824 433 829 Q409 834 387.5 838 Q366 842 355 842 Q333 842 316.5 836 Q300 830 283 823 L223 911 Q242 922 271.5 934 Q301 946 333 946 Q342 946 349 945.5 Q356 945 366.5 943 Q377 941 393.5 937.5 Q410 934 438 928 Q455 923 470 922 Q485 921 495 921 Q518 921 533.5 925.5 Q549 930 568 938 L628 853 Z " />
<glyph glyph-name="Scaron" unicode="&#x160;" horiz-adv-x="573" d="M357 524 Q355 533 352.5 545.5 Q350 558 343 569.5 Q336 581 323.5 588.5 Q311 596 289 596 Q264 596 244 580 Q224 564 224 538 Q224 521 229 510 Q234 499 250.5 487.5 Q267 476 297 461.5 Q327 447 377 425 Q429 402 462.5 378 Q496 354 515.5 328 Q535 302 542.5 273.5 Q550 245 550 213 Q550 172 537 131.5 Q524 91 494 59 Q464 27 414.5 6.5 Q365 -14 292 -14 Q212 -14 160 9.5 Q108 33 78 68 Q48 103 36.5 144 Q25 185 25 221 L25 245 L213 245 Q213 213 221.5 193 Q230 173 242.5 162 Q255 151 268 147.5 Q281 144 290 144 Q324 144 343 166.5 Q362 189 362 215 Q362 233 355.5 246 Q349 259 332.5 270 Q316 281 288 293.5 Q260 306 217 324 Q197 332 166.5 346.5 Q136 361 107 385.5 Q78 410 57 447 Q36 484 36 536 Q36 588 59 628.5 Q82 669 119 697 Q156 725 202 739.5 Q248 754 295 754 Q350 754 404.5 733.5 Q459 713 495 670 Q511 650 520.5 630.5 Q530 611 535 592.5 Q540 574 541.5 557 Q543 540 544 524 L357 524 Z M332 964 L493 964 L338 798 L230 798 L79 964 L240 964 L286 906 L332 964 Z " />
<glyph glyph-name="Uacute" unicode="&#xda;" horiz-adv-x="698" d="M254 740 L254 293 Q254 274 256 249.5 Q258 225 267 203.5 Q276 182 295.5 167 Q315 152 350 152 Q385 152 404 165.5 Q423 179 432 200 Q441 221 442.5 246 Q444 271 444 293 L444 740 L633 740 L633 293 Q633 246 628 211.5 Q623 177 613.5 151 Q604 125 590.5 104.5 Q577 84 559 66 Q523 29 472 7.5 Q421 -14 352 -14 Q332 -14 304.5 -11 Q277 -8 248 0.5 Q219 9 190.5 24.5 Q162 40 139 65 Q116 90 101.5 113.5 Q87 137 79 163 Q71 189 68 220.5 Q65 252 65 293 L65 740 L254 740 Z M551 895 L305 786 L258 884 L498 1013 L551 895 Z " />
<glyph glyph-name="Ucircumflex" unicode="&#xdb;" horiz-adv-x="698" d="M254 740 L254 293 Q254 274 256 249.5 Q258 225 267 203.5 Q276 182 295.5 167 Q315 152 350 152 Q385 152 404 165.5 Q423 179 432 200 Q441 221 442.5 246 Q444 271 444 293 L444 740 L633 740 L633 293 Q633 246 628 211.5 Q623 177 613.5 151 Q604 125 590.5 104.5 Q577 84 559 66 Q523 29 472 7.5 Q421 -14 352 -14 Q332 -14 304.5 -11 Q277 -8 248 0.5 Q219 9 190.5 24.5 Q162 40 139 65 Q116 90 101.5 113.5 Q87 137 79 163 Q71 189 68 220.5 Q65 252 65 293 L65 740 L254 740 Z M304 805 L142 805 L298 971 L406 971 L556 805 L396 805 L350 863 L304 805 Z " />
<glyph glyph-name="Udieresis" unicode="&#xdc;" horiz-adv-x="698" d="M254 740 L254 293 Q254 274 256 249.5 Q258 225 267 203.5 Q276 182 295.5 167 Q315 152 350 152 Q385 152 404 165.5 Q423 179 432 200 Q441 221 442.5 246 Q444 271 444 293 L444 740 L633 740 L633 293 Q633 246 628 211.5 Q623 177 613.5 151 Q604 125 590.5 104.5 Q577 84 559 66 Q523 29 472 7.5 Q421 -14 352 -14 Q332 -14 304.5 -11 Q277 -8 248 0.5 Q219 9 190.5 24.5 Q162 40 139 65 Q116 90 101.5 113.5 Q87 137 79 163 Q71 189 68 220.5 Q65 252 65 293 L65 740 L254 740 Z M230 964 Q265 964 293 938 Q319 912 319 876 Q319 841 293 813 Q265 787 230 787 Q196 787 168 813 Q143 839 143 876 Q143 913 168 938 Q194 964 230 964 Z M464 964 Q499 964 527 938 Q553 912 553 876 Q553 840 527 814 Q500 787 464 787 Q430 787 402 813 Q376 841 376 876 Q376 912 402 938 Q428 964 464 964 Z " />
<glyph glyph-name="Ugrave" unicode="&#xd9;" horiz-adv-x="698" d="M254 740 L254 293 Q254 274 256 249.5 Q258 225 267 203.5 Q276 182 295.5 167 Q315 152 350 152 Q385 152 404 165.5 Q423 179 432 200 Q441 221 442.5 246 Q444 271 444 293 L444 740 L633 740 L633 293 Q633 246 628 211.5 Q623 177 613.5 151 Q604 125 590.5 104.5 Q577 84 559 66 Q523 29 472 7.5 Q421 -14 352 -14 Q332 -14 304.5 -11 Q277 -8 248 0.5 Q219 9 190.5 24.5 Q162 40 139 65 Q116 90 101.5 113.5 Q87 137 79 163 Q71 189 68 220.5 Q65 252 65 293 L65 740 L254 740 Z M441 876 L395 779 L148 887 L199 1004 L441 876 Z " />
<glyph glyph-name="Yacute" unicode="&#xdd;" horiz-adv-x="647" d="M230 269 L9 740 L214 740 L324 443 L435 740 L638 740 L419 269 L419 0 L230 0 L230 269 Z M525 895 L279 786 L232 884 L472 1013 L525 895 Z " />
<glyph glyph-name="Ydieresis" unicode="&#x178;" horiz-adv-x="647" d="M230 269 L9 740 L214 740 L324 443 L435 740 L638 740 L419 269 L419 0 L230 0 L230 269 Z M204 964 Q239 964 267 938 Q293 912 293 876 Q293 841 267 813 Q239 787 204 787 Q170 787 142 813 Q117 839 117 876 Q117 913 142 938 Q168 964 204 964 Z M438 964 Q473 964 501 938 Q527 912 527 876 Q527 840 501 814 Q474 787 438 787 Q404 787 376 813 Q350 841 350 876 Q350 912 376 938 Q402 964 438 964 Z " />
<glyph glyph-name="Zcaron" unicode="&#x17d;" horiz-adv-x="499" d="M16 124 L271 574 L16 574 L16 740 L483 740 L483 587 L247 166 L483 166 L483 0 L16 0 L16 124 Z M321 964 L482 964 L327 798 L219 798 L68 964 L229 964 L275 906 L321 964 Z " />
<glyph glyph-name="aacute" unicode="&#xe1;" horiz-adv-x="704" d="M643 0 L477 0 L477 60 L475 60 Q464 40 447 25 Q430 10 408 0 Q386 -10 361.5 -14.5 Q337 -19 313 -19 Q247 -19 195 5 Q143 29 107.5 70 Q72 111 53 164.5 Q34 218 34 278 Q34 346 57 401 Q80 456 118 494.5 Q156 533 206.5 553.5 Q257 574 313 574 Q347 574 374 566.5 Q401 559 421 547.5 Q441 536 454 522.5 Q467 509 475 496 L477 496 L477 555 L643 555 L643 0 Z M200 276 Q200 256 207.5 232 Q215 208 231.5 186.5 Q248 165 274 150.5 Q300 136 338 136 Q377 136 403.5 150.5 Q430 165 446.5 186.5 Q463 208 470 233 Q477 258 477 278 Q477 303 468.5 328 Q460 353 442.5 373.5 Q425 394 398.5 406.5 Q372 419 337 419 Q301 419 275.5 405.5 Q250 392 233 371 Q216 350 208 325 Q200 300 200 276 Z M519 730 L273 621 L226 719 L466 848 L519 730 Z " />
<glyph glyph-name="acircumflex" unicode="&#xe2;" horiz-adv-x="704" d="M643 0 L477 0 L477 60 L475 60 Q464 40 447 25 Q430 10 408 0 Q386 -10 361.5 -14.5 Q337 -19 313 -19 Q247 -19 195 5 Q143 29 107.5 70 Q72 111 53 164.5 Q34 218 34 278 Q34 346 57 401 Q80 456 118 494.5 Q156 533 206.5 553.5 Q257 574 313 574 Q347 574 374 566.5 Q401 559 421 547.5 Q441 536 454 522.5 Q467 509 475 496 L477 496 L477 555 L643 555 L643 0 Z M200 276 Q200 256 207.5 232 Q215 208 231.5 186.5 Q248 165 274 150.5 Q300 136 338 136 Q377 136 403.5 150.5 Q430 165 446.5 186.5 Q463 208 470 233 Q477 258 477 278 Q477 303 468.5 328 Q460 353 442.5 373.5 Q425 394 398.5 406.5 Q372 419 337 419 Q301 419 275.5 405.5 Q250 392 233 371 Q216 350 208 325 Q200 300 200 276 Z M307 640 L145 640 L301 806 L409 806 L559 640 L399 640 L353 698 L307 640 Z " />
<glyph glyph-name="adieresis" unicode="&#xe4;" horiz-adv-x="704" d="M643 0 L477 0 L477 60 L475 60 Q464 40 447 25 Q430 10 408 0 Q386 -10 361.5 -14.5 Q337 -19 313 -19 Q247 -19 195 5 Q143 29 107.5 70 Q72 111 53 164.5 Q34 218 34 278 Q34 346 57 401 Q80 456 118 494.5 Q156 533 206.5 553.5 Q257 574 313 574 Q347 574 374 566.5 Q401 559 421 547.5 Q441 536 454 522.5 Q467 509 475 496 L477 496 L477 555 L643 555 L643 0 Z M200 276 Q200 256 207.5 232 Q215 208 231.5 186.5 Q248 165 274 150.5 Q300 136 338 136 Q377 136 403.5 150.5 Q430 165 446.5 186.5 Q463 208 470 233 Q477 258 477 278 Q477 303 468.5 328 Q460 353 442.5 373.5 Q425 394 398.5 406.5 Q372 419 337 419 Q301 419 275.5 405.5 Q250 392 233 371 Q216 350 208 325 Q200 300 200 276 Z M233 799 Q268 799 296 773 Q322 747 322 711 Q322 676 296 648 Q268 622 233 622 Q199 622 171 648 Q146 674 146 711 Q146 748 171 773 Q197 799 233 799 Z M467 799 Q502 799 530 773 Q556 747 556 711 Q556 675 530 649 Q503 622 467 622 Q433 622 405 648 Q379 676 379 711 Q379 747 405 773 Q431 799 467 799 Z " />
<glyph glyph-name="agrave" unicode="&#xe0;" horiz-adv-x="704" d="M643 0 L477 0 L477 60 L475 60 Q464 40 447 25 Q430 10 408 0 Q386 -10 361.5 -14.5 Q337 -19 313 -19 Q247 -19 195 5 Q143 29 107.5 70 Q72 111 53 164.5 Q34 218 34 278 Q34 346 57 401 Q80 456 118 494.5 Q156 533 206.5 553.5 Q257 574 313 574 Q347 574 374 566.5 Q401 559 421 547.5 Q441 536 454 522.5 Q467 509 475 496 L477 496 L477 555 L643 555 L643 0 Z M200 276 Q200 256 207.5 232 Q215 208 231.5 186.5 Q248 165 274 150.5 Q300 136 338 136 Q377 136 403.5 150.5 Q430 165 446.5 186.5 Q463 208 470 233 Q477 258 477 278 Q477 303 468.5 328 Q460 353 442.5 373.5 Q425 394 398.5 406.5 Q372 419 337 419 Q301 419 275.5 405.5 Q250 392 233 371 Q216 350 208 325 Q200 300 200 276 Z M479 711 L433 614 L186 722 L237 839 L479 711 Z " />
<glyph glyph-name="aring" unicode="&#xe5;" horiz-adv-x="704" d="M643 0 L477 0 L477 60 L475 60 Q464 40 447 25 Q430 10 408 0 Q386 -10 361.5 -14.5 Q337 -19 313 -19 Q247 -19 195 5 Q143 29 107.5 70 Q72 111 53 164.5 Q34 218 34 278 Q34 346 57 401 Q80 456 118 494.5 Q156 533 206.5 553.5 Q257 574 313 574 Q347 574 374 566.5 Q401 559 421 547.5 Q441 536 454 522.5 Q467 509 475 496 L477 496 L477 555 L643 555 L643 0 Z M200 276 Q200 256 207.5 232 Q215 208 231.5 186.5 Q248 165 274 150.5 Q300 136 338 136 Q377 136 403.5 150.5 Q430 165 446.5 186.5 Q463 208 470 233 Q477 258 477 278 Q477 303 468.5 328 Q460 353 442.5 373.5 Q425 394 398.5 406.5 Q372 419 337 419 Q301 419 275.5 405.5 Q250 392 233 371 Q216 350 208 325 Q200 300 200 276 Z M478 726 Q478 700 468 677 Q458 654 441 637 Q424 620 401 610 Q378 600 352 600 Q326 600 303 610 Q280 620 263 637 Q246 654 236 677 Q226 700 226 726 Q226 752 236 775 Q246 798 263 815 Q280 832 303 842 Q326 852 352 852 Q378 852 401 842 Q424 832 441 815 Q458 798 468 775 Q478 752 478 726 Z M308 726 Q308 708 321 695.5 Q334 683 352 683 Q370 683 383 695.5 Q396 708 396 727 Q396 745 383.5 758 Q371 771 352 771 Q332 771 320 757.5 Q308 744 308 726 Z " />
<glyph glyph-name="atilde" unicode="&#xe3;" horiz-adv-x="704" d="M643 0 L477 0 L477 60 L475 60 Q464 40 447 25 Q430 10 408 0 Q386 -10 361.5 -14.5 Q337 -19 313 -19 Q247 -19 195 5 Q143 29 107.5 70 Q72 111 53 164.5 Q34 218 34 278 Q34 346 57 401 Q80 456 118 494.5 Q156 533 206.5 553.5 Q257 574 313 574 Q347 574 374 566.5 Q401 559 421 547.5 Q441 536 454 522.5 Q467 509 475 496 L477 496 L477 555 L643 555 L643 0 Z M200 276 Q200 256 207.5 232 Q215 208 231.5 186.5 Q248 165 274 150.5 Q300 136 338 136 Q377 136 403.5 150.5 Q430 165 446.5 186.5 Q463 208 470 233 Q477 258 477 278 Q477 303 468.5 328 Q460 353 442.5 373.5 Q425 394 398.5 406.5 Q372 419 337 419 Q301 419 275.5 405.5 Q250 392 233 371 Q216 350 208 325 Q200 300 200 276 Z M555 688 Q529 671 501.5 661 Q474 651 442 651 Q429 651 406.5 655 Q384 659 360 664 Q336 669 314.5 673 Q293 677 282 677 Q260 677 243.5 671 Q227 665 210 658 L150 746 Q169 757 198.5 769 Q228 781 260 781 Q269 781 276 780.5 Q283 780 293.5 778 Q304 776 320.5 772.5 Q337 769 365 763 Q382 758 397 757 Q412 756 422 756 Q445 756 460.5 760.5 Q476 765 495 773 L555 688 Z " />
<glyph glyph-name="eacute" unicode="&#xe9;" horiz-adv-x="646" d="M595 174 Q575 127 546 91.5 Q517 56 482 32 Q412 -18 324 -18 Q264 -18 211 4.5 Q158 27 117.5 67 Q77 107 53.5 160.5 Q30 214 30 276 Q30 334 51.5 388 Q73 442 112 483 Q151 524 204.5 549 Q258 574 321 574 Q384 574 438 550.5 Q492 527 531 486 Q570 445 592 389.5 Q614 334 614 271 Q614 254 613 245.5 Q612 237 610 227 L194 227 Q202 177 238.5 149.5 Q275 122 324 122 Q362 122 385 137 Q408 152 425 174 L595 174 Z M448 339 Q445 351 437.5 367.5 Q430 384 415 399 Q400 414 377 424 Q354 434 322 434 Q290 434 267 424 Q244 414 229 399 Q214 384 206.5 367.5 Q199 351 196 339 L448 339 Z M490 730 L244 621 L197 719 L437 848 L490 730 Z " />
<glyph glyph-name="ecircumflex" unicode="&#xea;" horiz-adv-x="646" d="M595 174 Q575 127 546 91.5 Q517 56 482 32 Q412 -18 324 -18 Q264 -18 211 4.5 Q158 27 117.5 67 Q77 107 53.5 160.5 Q30 214 30 276 Q30 334 51.5 388 Q73 442 112 483 Q151 524 204.5 549 Q258 574 321 574 Q384 574 438 550.5 Q492 527 531 486 Q570 445 592 389.5 Q614 334 614 271 Q614 254 613 245.5 Q612 237 610 227 L194 227 Q202 177 238.5 149.5 Q275 122 324 122 Q362 122 385 137 Q408 152 425 174 L595 174 Z M448 339 Q445 351 437.5 367.5 Q430 384 415 399 Q400 414 377 424 Q354 434 322 434 Q290 434 267 424 Q244 414 229 399 Q214 384 206.5 367.5 Q199 351 196 339 L448 339 Z M278 640 L116 640 L272 806 L380 806 L530 640 L370 640 L324 698 L278 640 Z " />
<glyph glyph-name="edieresis" unicode="&#xeb;" horiz-adv-x="646" d="M595 174 Q575 127 546 91.5 Q517 56 482 32 Q412 -18 324 -18 Q264 -18 211 4.5 Q158 27 117.5 67 Q77 107 53.5 160.5 Q30 214 30 276 Q30 334 51.5 388 Q73 442 112 483 Q151 524 204.5 549 Q258 574 321 574 Q384 574 438 550.5 Q492 527 531 486 Q570 445 592 389.5 Q614 334 614 271 Q614 254 613 245.5 Q612 237 610 227 L194 227 Q202 177 238.5 149.5 Q275 122 324 122 Q362 122 385 137 Q408 152 425 174 L595 174 Z M448 339 Q445 351 437.5 367.5 Q430 384 415 399 Q400 414 377 424 Q354 434 322 434 Q290 434 267 424 Q244 414 229 399 Q214 384 206.5 367.5 Q199 351 196 339 L448 339 Z M204 799 Q239 799 267 773 Q293 747 293 711 Q293 676 267 648 Q239 622 204 622 Q170 622 142 648 Q117 674 117 711 Q117 748 142 773 Q168 799 204 799 Z M438 799 Q473 799 501 773 Q527 747 527 711 Q527 675 501 649 Q474 622 438 622 Q404 622 376 648 Q350 676 350 711 Q350 747 376 773 Q402 799 438 799 Z " />
<glyph glyph-name="egrave" unicode="&#xe8;" horiz-adv-x="646" d="M595 174 Q575 127 546 91.5 Q517 56 482 32 Q412 -18 324 -18 Q264 -18 211 4.5 Q158 27 117.5 67 Q77 107 53.5 160.5 Q30 214 30 276 Q30 334 51.5 388 Q73 442 112 483 Q151 524 204.5 549 Q258 574 321 574 Q384 574 438 550.5 Q492 527 531 486 Q570 445 592 389.5 Q614 334 614 271 Q614 254 613 245.5 Q612 237 610 227 L194 227 Q202 177 238.5 149.5 Q275 122 324 122 Q362 122 385 137 Q408 152 425 174 L595 174 Z M448 339 Q445 351 437.5 367.5 Q430 384 415 399 Q400 414 377 424 Q354 434 322 434 Q290 434 267 424 Q244 414 229 399 Q214 384 206.5 367.5 Q199 351 196 339 L448 339 Z M450 711 L404 614 L157 722 L208 839 L450 711 Z " />
<glyph glyph-name="iacute" unicode="&#xed;" horiz-adv-x="286" d="M226 0 L60 0 L60 555 L226 555 L226 0 Z M336 730 L90 621 L43 719 L283 848 L336 730 Z " />
<glyph glyph-name="icircumflex" unicode="&#xee;" horiz-adv-x="286" d="M226 0 L60 0 L60 555 L226 555 L226 0 Z M99 640 L-63 640 L93 806 L201 806 L351 640 L191 640 L145 698 L99 640 Z " />
<glyph glyph-name="idieresis" unicode="&#xef;" horiz-adv-x="286" d="M226 0 L60 0 L60 555 L226 555 L226 0 Z M25 799 Q60 799 88 773 Q114 747 114 711 Q114 676 88 648 Q60 622 25 622 Q-9 622 -37 648 Q-62 674 -62 711 Q-62 748 -37 773 Q-11 799 25 799 Z M259 799 Q294 799 322 773 Q348 747 348 711 Q348 675 322 649 Q295 622 259 622 Q225 622 197 648 Q171 676 171 711 Q171 747 197 773 Q223 799 259 799 Z " />
<glyph glyph-name="igrave" unicode="&#xec;" horiz-adv-x="286" d="M226 0 L60 0 L60 555 L226 555 L226 0 Z M246 711 L200 614 L-47 722 L4 839 L246 711 Z " />
<glyph glyph-name="ntilde" unicode="&#xf1;" horiz-adv-x="632" d="M60 555 L215 555 L215 496 L217 496 Q223 506 233.5 519.5 Q244 533 261.5 545 Q279 557 305 565.5 Q331 574 368 574 Q408 574 447.5 560 Q487 546 510 526 Q521 516 532.5 502.5 Q544 489 553 468 Q562 447 568 417.5 Q574 388 574 347 L574 0 L408 0 L408 303 Q408 318 406.5 337.5 Q405 357 397 375 Q389 393 371.5 405.5 Q354 418 321 418 Q285 418 266 404.5 Q247 391 238 372.5 Q229 354 227.5 334.5 Q226 315 226 302 L226 0 L60 0 L60 555 Z M519 688 Q493 671 465.5 661 Q438 651 406 651 Q393 651 370.5 655 Q348 659 324 664 Q300 669 278.5 673 Q257 677 246 677 Q224 677 207.5 671 Q191 665 174 658 L114 746 Q133 757 162.5 769 Q192 781 224 781 Q233 781 240 780.5 Q247 780 257.5 778 Q268 776 284.5 772.5 Q301 769 329 763 Q346 758 361 757 Q376 756 386 756 Q409 756 424.5 760.5 Q440 765 459 773 L519 688 Z " />
<glyph glyph-name="oacute" unicode="&#xf3;" horiz-adv-x="666" d="M34 278 Q34 329 52.5 381.5 Q71 434 108 476.5 Q145 519 201 546 Q257 573 333 573 Q409 573 465 546 Q521 519 558 476.5 Q595 434 613.5 381.5 Q632 329 632 278 Q632 227 613.5 174.5 Q595 122 558 79.5 Q521 37 465 10 Q409 -17 333 -17 Q257 -17 201 10 Q145 37 108 79.5 Q71 122 52.5 174.5 Q34 227 34 278 Z M200 278 Q200 248 210.5 222 Q221 196 239.5 177.5 Q258 159 282 148.5 Q306 138 333 138 Q360 138 384 148.5 Q408 159 426.5 177.5 Q445 196 455.5 222 Q466 248 466 278 Q466 308 455.5 334 Q445 360 426.5 378.5 Q408 397 384 407.5 Q360 418 333 418 Q306 418 282 407.5 Q258 397 239.5 378.5 Q221 360 210.5 334 Q200 308 200 278 Z M500 730 L254 621 L207 719 L447 848 L500 730 Z " />
<glyph glyph-name="ocircumflex" unicode="&#xf4;" horiz-adv-x="666" d="M34 278 Q34 329 52.5 381.5 Q71 434 108 476.5 Q145 519 201 546 Q257 573 333 573 Q409 573 465 546 Q521 519 558 476.5 Q595 434 613.5 381.5 Q632 329 632 278 Q632 227 613.5 174.5 Q595 122 558 79.5 Q521 37 465 10 Q409 -17 333 -17 Q257 -17 201 10 Q145 37 108 79.5 Q71 122 52.5 174.5 Q34 227 34 278 Z M200 278 Q200 248 210.5 222 Q221 196 239.5 177.5 Q258 159 282 148.5 Q306 138 333 138 Q360 138 384 148.5 Q408 159 426.5 177.5 Q445 196 455.5 222 Q466 248 466 278 Q466 308 455.5 334 Q445 360 426.5 378.5 Q408 397 384 407.5 Q360 418 333 418 Q306 418 282 407.5 Q258 397 239.5 378.5 Q221 360 210.5 334 Q200 308 200 278 Z M288 640 L126 640 L282 806 L390 806 L540 640 L380 640 L334 698 L288 640 Z " />
<glyph glyph-name="odieresis" unicode="&#xf6;" horiz-adv-x="666" d="M34 278 Q34 329 52.5 381.5 Q71 434 108 476.5 Q145 519 201 546 Q257 573 333 573 Q409 573 465 546 Q521 519 558 476.5 Q595 434 613.5 381.5 Q632 329 632 278 Q632 227 613.5 174.5 Q595 122 558 79.5 Q521 37 465 10 Q409 -17 333 -17 Q257 -17 201 10 Q145 37 108 79.5 Q71 122 52.5 174.5 Q34 227 34 278 Z M200 278 Q200 248 210.5 222 Q221 196 239.5 177.5 Q258 159 282 148.5 Q306 138 333 138 Q360 138 384 148.5 Q408 159 426.5 177.5 Q445 196 455.5 222 Q466 248 466 278 Q466 308 455.5 334 Q445 360 426.5 378.5 Q408 397 384 407.5 Q360 418 333 418 Q306 418 282 407.5 Q258 397 239.5 378.5 Q221 360 210.5 334 Q200 308 200 278 Z M214 799 Q249 799 277 773 Q303 747 303 711 Q303 676 277 648 Q249 622 214 622 Q180 622 152 648 Q127 674 127 711 Q127 748 152 773 Q178 799 214 799 Z M448 799 Q483 799 511 773 Q537 747 537 711 Q537 675 511 649 Q484 622 448 622 Q414 622 386 648 Q360 676 360 711 Q360 747 386 773 Q412 799 448 799 Z " />
<glyph glyph-name="ograve" unicode="&#xf2;" horiz-adv-x="666" d="M34 278 Q34 329 52.5 381.5 Q71 434 108 476.5 Q145 519 201 546 Q257 573 333 573 Q409 573 465 546 Q521 519 558 476.5 Q595 434 613.5 381.5 Q632 329 632 278 Q632 227 613.5 174.5 Q595 122 558 79.5 Q521 37 465 10 Q409 -17 333 -17 Q257 -17 201 10 Q145 37 108 79.5 Q71 122 52.5 174.5 Q34 227 34 278 Z M200 278 Q200 248 210.5 222 Q221 196 239.5 177.5 Q258 159 282 148.5 Q306 138 333 138 Q360 138 384 148.5 Q408 159 426.5 177.5 Q445 196 455.5 222 Q466 248 466 278 Q466 308 455.5 334 Q445 360 426.5 378.5 Q408 397 384 407.5 Q360 418 333 418 Q306 418 282 407.5 Q258 397 239.5 378.5 Q221 360 210.5 334 Q200 308 200 278 Z M460 711 L414 614 L167 722 L218 839 L460 711 Z " />
<glyph glyph-name="otilde" unicode="&#xf5;" horiz-adv-x="666" d="M34 278 Q34 329 52.5 381.5 Q71 434 108 476.5 Q145 519 201 546 Q257 573 333 573 Q409 573 465 546 Q521 519 558 476.5 Q595 434 613.5 381.5 Q632 329 632 278 Q632 227 613.5 174.5 Q595 122 558 79.5 Q521 37 465 10 Q409 -17 333 -17 Q257 -17 201 10 Q145 37 108 79.5 Q71 122 52.5 174.5 Q34 227 34 278 Z M200 278 Q200 248 210.5 222 Q221 196 239.5 177.5 Q258 159 282 148.5 Q306 138 333 138 Q360 138 384 148.5 Q408 159 426.5 177.5 Q445 196 455.5 222 Q466 248 466 278 Q466 308 455.5 334 Q445 360 426.5 378.5 Q408 397 384 407.5 Q360 418 333 418 Q306 418 282 407.5 Q258 397 239.5 378.5 Q221 360 210.5 334 Q200 308 200 278 Z M536 688 Q510 671 482.5 661 Q455 651 423 651 Q410 651 387.5 655 Q365 659 341 664 Q317 669 295.5 673 Q274 677 263 677 Q241 677 224.5 671 Q208 665 191 658 L131 746 Q150 757 179.5 769 Q209 781 241 781 Q250 781 257 780.5 Q264 780 274.5 778 Q285 776 301.5 772.5 Q318 769 346 763 Q363 758 378 757 Q393 756 403 756 Q426 756 441.5 760.5 Q457 765 476 773 L536 688 Z " />
<glyph glyph-name="scaron" unicode="&#x161;" horiz-adv-x="499" d="M296 399 Q296 403 294.5 410.5 Q293 418 288 424.5 Q283 431 272.5 436 Q262 441 244 441 Q218 441 207.5 428 Q197 415 197 404 Q197 381 223 367.5 Q249 354 282 344 Q317 334 352 322.5 Q387 311 414.5 292 Q442 273 459 244 Q476 215 476 170 Q476 126 458 91 Q440 56 409 31.5 Q378 7 337 -6 Q296 -19 250 -19 Q218 -19 181 -11 Q144 -3 111 18 Q78 39 54 74.5 Q30 110 24 165 L189 165 Q192 146 201 135.5 Q210 125 220.5 120.5 Q231 116 240 115 Q249 114 252 114 Q273 114 291.5 125.5 Q310 137 310 157 Q310 173 302 183 Q294 193 276.5 202 Q259 211 231 221 Q203 231 163 246 Q136 255 112 268 Q88 281 70 299 Q52 317 41.5 340 Q31 363 31 391 Q31 432 48.5 466 Q66 500 95.5 524 Q125 548 164 561 Q203 574 246 574 Q273 574 308 567 Q343 560 374.5 541 Q406 522 430 488 Q454 454 459 399 L296 399 Z M296 799 L457 799 L302 633 L194 633 L43 799 L204 799 L250 741 L296 799 Z " />
<glyph glyph-name="uacute" unicode="&#xfa;" horiz-adv-x="634" d="M574 0 L417 0 L417 59 L415 59 Q402 32 384 17 Q366 2 346 -6 Q326 -14 306.5 -16 Q287 -18 271 -18 Q258 -18 238 -16 Q218 -14 195 -6.5 Q172 1 149 15 Q126 29 108 52 Q91 73 81.5 91.5 Q72 110 66.5 129.5 Q61 149 59.5 171.5 Q58 194 58 223 L58 555 L224 555 L224 248 Q224 234 225.5 214.5 Q227 195 235 178 Q243 161 261.5 149 Q280 137 313 137 Q331 137 348 142.5 Q365 148 378.5 160.5 Q392 173 400 195 Q408 217 408 250 L408 555 L574 555 L574 0 Z M519 730 L273 621 L226 719 L466 848 L519 730 Z " />
<glyph glyph-name="ucircumflex" unicode="&#xfb;" horiz-adv-x="634" d="M574 0 L417 0 L417 59 L415 59 Q402 32 384 17 Q366 2 346 -6 Q326 -14 306.5 -16 Q287 -18 271 -18 Q258 -18 238 -16 Q218 -14 195 -6.5 Q172 1 149 15 Q126 29 108 52 Q91 73 81.5 91.5 Q72 110 66.5 129.5 Q61 149 59.5 171.5 Q58 194 58 223 L58 555 L224 555 L224 248 Q224 234 225.5 214.5 Q227 195 235 178 Q243 161 261.5 149 Q280 137 313 137 Q331 137 348 142.5 Q365 148 378.5 160.5 Q392 173 400 195 Q408 217 408 250 L408 555 L574 555 L574 0 Z M272 640 L110 640 L266 806 L374 806 L524 640 L364 640 L318 698 L272 640 Z " />
<glyph glyph-name="udieresis" unicode="&#xfc;" horiz-adv-x="634" d="M574 0 L417 0 L417 59 L415 59 Q402 32 384 17 Q366 2 346 -6 Q326 -14 306.5 -16 Q287 -18 271 -18 Q258 -18 238 -16 Q218 -14 195 -6.5 Q172 1 149 15 Q126 29 108 52 Q91 73 81.5 91.5 Q72 110 66.5 129.5 Q61 149 59.5 171.5 Q58 194 58 223 L58 555 L224 555 L224 248 Q224 234 225.5 214.5 Q227 195 235 178 Q243 161 261.5 149 Q280 137 313 137 Q331 137 348 142.5 Q365 148 378.5 160.5 Q392 173 400 195 Q408 217 408 250 L408 555 L574 555 L574 0 Z M198 799 Q233 799 261 773 Q287 747 287 711 Q287 676 261 648 Q233 622 198 622 Q164 622 136 648 Q111 674 111 711 Q111 748 136 773 Q162 799 198 799 Z M432 799 Q467 799 495 773 Q521 747 521 711 Q521 675 495 649 Q468 622 432 622 Q398 622 370 648 Q344 676 344 711 Q344 747 370 773 Q396 799 432 799 Z " />
<glyph glyph-name="ugrave" unicode="&#xf9;" horiz-adv-x="634" d="M574 0 L417 0 L417 59 L415 59 Q402 32 384 17 Q366 2 346 -6 Q326 -14 306.5 -16 Q287 -18 271 -18 Q258 -18 238 -16 Q218 -14 195 -6.5 Q172 1 149 15 Q126 29 108 52 Q91 73 81.5 91.5 Q72 110 66.5 129.5 Q61 149 59.5 171.5 Q58 194 58 223 L58 555 L224 555 L224 248 Q224 234 225.5 214.5 Q227 195 235 178 Q243 161 261.5 149 Q280 137 313 137 Q331 137 348 142.5 Q365 148 378.5 160.5 Q392 173 400 195 Q408 217 408 250 L408 555 L574 555 L574 0 Z M409 711 L363 614 L116 722 L167 839 L409 711 Z " />
<glyph glyph-name="yacute" unicode="&#xfd;" horiz-adv-x="574" d="M573 555 L295 -185 L119 -185 L207 28 L1 555 L178 555 L289 233 L291 233 L397 555 L573 555 Z M489 730 L243 621 L196 719 L436 848 L489 730 Z " />
<glyph glyph-name="ydieresis" unicode="&#xff;" horiz-adv-x="574" d="M573 555 L295 -185 L119 -185 L207 28 L1 555 L178 555 L289 233 L291 233 L397 555 L573 555 Z M168 799 Q203 799 231 773 Q257 747 257 711 Q257 676 231 648 Q203 622 168 622 Q134 622 106 648 Q81 674 81 711 Q81 748 106 773 Q132 799 168 799 Z M402 799 Q437 799 465 773 Q491 747 491 711 Q491 675 465 649 Q438 622 402 622 Q368 622 340 648 Q314 676 314 711 Q314 747 340 773 Q366 799 402 799 Z " />
<glyph glyph-name="zcaron" unicode="&#x17e;" horiz-adv-x="444" d="M428 126 L428 0 L15 0 L15 114 L249 429 L15 429 L15 555 L428 555 L428 429 L211 126 L428 126 Z M294 799 L455 799 L300 633 L192 633 L41 799 L202 799 L248 741 L294 799 Z " />
<glyph glyph-name="numbersign" unicode="&#x23;" horiz-adv-x="618" d="M411 45 L298 45 L322 219 L244 219 L220 45 L106 45 L130 219 L31 219 L46 330 L146 330 L156 403 L56 403 L71 514 L171 514 L193 672 L307 672 L285 514 L363 514 L385 672 L499 672 L477 514 L588 514 L573 403 L461 403 L451 330 L562 330 L547 219 L435 219 L411 45 Z M348 403 L270 403 L260 330 L338 330 L348 403 Z " />
<glyph glyph-name="exclam" unicode="&#x21;" horiz-adv-x="333" d="M270 87 L270 88 Q270 45 239 15 Q209 -15 167 -15 Q124 -15 94 15 Q63 45 63 87 Q63 131 93 161 Q123 191 166 191 Q209 191 239 161 Q270 130 270 87 Z M257 721 L250 235 L83 235 L75 721 L257 721 Z " />
<glyph glyph-name="quotedbl" unicode="&#x22;" horiz-adv-x="463" d="M198 741 L183 470 L57 470 L41 741 L198 741 Z M420 741 L404 470 L278 470 L263 741 L420 741 Z " />
</font>
</svg>
